# Wavefront OBJ exported by MilkShape 3D

v -135.249756 -0.931953 48.701302
v -135.249756 -0.931953 -0.000001
v -62.704952 -0.931953 -0.000001
v -62.704952 -0.931953 48.701302
v 116.946251 -0.931953 -0.000001
v 116.946251 -0.931953 48.701302
v 135.249756 -0.931953 -0.000001
v 135.249756 -0.931953 48.701302
v -135.249756 45.756248 48.701302
v -62.704853 45.756248 48.701302
v -62.704853 45.756248 -0.000001
v -135.249756 45.756248 -0.000001
v -52.481251 72.931946 48.701302
v 106.722549 72.931946 48.701302
v 106.722549 72.931946 -0.000001
v -52.481251 72.931946 -0.000001
v 116.946251 45.756248 48.701302
v 135.249756 45.756248 48.701302
v 135.249756 45.756248 -0.000001
v 116.946251 45.756248 -0.000001
v -135.249756 -0.931953 -48.701302
v -62.704952 -0.931953 -48.701302
v 116.946251 -0.931953 -48.701302
v 135.249756 -0.931953 -48.701302
v -135.249756 45.756248 -48.701302
v -62.704853 45.756248 -48.701302
v -52.481251 72.931946 -48.701302
v 106.722549 72.931946 -48.701302
v 116.946251 45.756248 -48.701302
v 135.249756 45.756248 -48.701302
# 30 vertices

vt 0.790200 0.015800
vt 0.790200 0.157300
vt 0.579500 0.157300
vt 0.579400 0.015900
vt 0.057700 0.157400
vt 0.057700 0.015900
vt 0.004500 0.157400
vt 0.004500 0.015900
vt 0.634700 0.984900
vt 0.209700 0.984900
vt 0.209700 0.699700
vt 0.634700 0.699700
vt 0.615000 0.443700
vt 0.134700 0.443700
vt 0.134700 0.296700
vt 0.615000 0.296700
vt 0.992600 0.244700
vt 0.992600 0.314800
vt 0.806100 0.314800
vt 0.806100 0.244700
vt 0.864700 0.666500
vt 0.645800 0.666500
vt 0.645800 0.525600
vt 0.864700 0.525600
vt 0.103800 0.666500
vt 0.103800 0.525700
vt 0.048600 0.666500
vt 0.048600 0.525700
vt 0.992600 0.493500
vt 0.806100 0.493500
vt 0.908200 0.699700
vt 0.908200 0.984900
vt 0.039600 0.984900
vt 0.039600 0.699700
vt 0.806100 0.133500
vt 0.992600 0.133500
# 36 texture coordinates

vn 0.000000 -1.000000 0.000000
vn 0.000000 1.000000 0.000000
vn 0.000000 0.000000 1.000000
vn 1.000000 0.000000 0.000000
vn -1.000000 0.000000 0.000000
vn -0.935958 0.352111 0.000000
vn -0.418573 0.157469 0.894427
vn -0.837146 0.314938 0.447214
vn 0.837145 0.314940 0.447214
vn 0.418573 0.157470 0.894427
vn 0.935957 0.352114 0.000000
vn 0.000000 0.000000 -1.000000
vn -0.837146 0.314938 -0.447214
vn -0.418573 0.157469 -0.894427
vn 0.418573 0.157470 -0.894427
vn 0.837145 0.314940 -0.447214
# 16 normals

g Box001
s 2
f 1/1/1 2/2/1 3/3/1
f 1/1/1 3/3/1 4/4/1
f 4/4/1 3/3/1 5/5/1
f 4/4/1 5/5/1 6/6/1
f 6/6/1 5/5/1 7/7/1
f 6/6/1 7/7/1 8/8/1
s 4
f 9/9/2 10/10/2 11/11/2
f 9/9/2 11/11/2 12/12/2
f 13/13/2 14/14/2 15/15/2
f 13/13/2 15/15/2 16/16/2
f 17/17/2 18/18/2 19/19/2
f 17/17/2 19/19/2 20/20/2
s 8
f 1/21/3 4/22/3 10/23/3
f 1/21/3 10/23/3 9/24/3
f 4/22/3 6/25/3 17/26/3
f 4/22/3 17/26/3 10/23/3
f 6/25/3 8/27/3 18/28/3
f 6/25/3 18/28/3 17/26/3
s 16
f 8/29/4 7/30/4 19/19/4
f 8/29/4 19/19/4 18/18/4
s 31
f 2/31/5 1/32/5 9/9/5
f 2/31/5 9/9/5 12/12/5
f 11/11/6 10/10/7 13/33/8
f 11/11/6 13/33/8 16/34/6
f 10/23/7 17/26/9 14/14/10
f 10/23/7 14/14/10 13/13/8
f 17/17/9 20/20/11 15/35/11
f 17/17/9 15/35/11 14/36/10
s 2
f 21/1/1 22/4/1 3/3/1
f 21/1/1 3/3/1 2/2/1
f 22/4/1 23/6/1 5/5/1
f 22/4/1 5/5/1 3/3/1
f 23/6/1 24/8/1 7/7/1
f 23/6/1 7/7/1 5/5/1
s 4
f 25/9/2 12/12/2 11/11/2
f 25/9/2 11/11/2 26/10/2
f 27/13/2 16/16/2 15/15/2
f 27/13/2 15/15/2 28/14/2
f 29/17/2 20/20/2 19/19/2
f 29/17/2 19/19/2 30/18/2
s 8
f 21/21/12 25/24/12 26/23/12
f 21/21/12 26/23/12 22/22/12
f 22/22/12 26/23/12 29/26/12
f 22/22/12 29/26/12 23/25/12
f 23/25/12 29/26/12 30/28/12
f 23/25/12 30/28/12 24/27/12
s 16
f 24/29/4 30/18/4 19/19/4
f 24/29/4 19/19/4 7/30/4
s 31
f 2/31/5 12/12/5 25/9/5
f 2/31/5 25/9/5 21/32/5
f 11/11/6 16/34/6 27/33/13
f 11/11/6 27/33/13 26/10/14
f 26/23/14 27/13/13 28/14/15
f 26/23/14 28/14/15 29/26/16
f 29/17/16 28/36/15 15/35/11
f 29/17/16 15/35/11 20/20/11
# 56 triangles in group

# 56 triangles total

