# Wavefront OBJ exported by MilkShape 3D

mtllib cabinet for file.mtl

v 15.084500 0.000000 4.380700
v -15.084500 0.000000 4.380700
v -15.084500 0.000000 -4.380700
v 15.084500 0.000000 -4.380700
v 15.084500 20.178301 4.380700
v 15.084500 20.178301 -4.380700
v -15.084500 20.178301 -4.380700
v -15.084500 20.178301 4.380700
# 8 vertices

vt 0.948900 0.923900
vt 0.489800 0.923900
vt 0.489800 0.790500
vt 0.948900 0.790500
vt 0.503200 0.770300
vt 0.503200 0.636900
vt 0.962200 0.636900
vt 0.962200 0.770300
vt 0.801700 0.150100
vt 0.975100 0.150100
vt 0.975100 0.549300
vt 0.801700 0.549300
vt 0.477400 0.921800
vt 0.018300 0.921800
vt 0.018300 0.614700
vt 0.477400 0.614700
vt 0.031600 0.150100
vt 0.204900 0.150100
vt 0.204900 0.549300
vt 0.031600 0.549300
# 20 texture coordinates

vn 0.000000 -1.000000 0.000000
vn 0.000000 1.000000 0.000000
vn 1.000000 0.000000 0.000000
vn 0.000000 0.000000 -1.000000
vn -1.000000 0.000000 0.000000
vn 0.000000 0.000000 1.000000
# 6 normals

g Box001
s 2
f 1/1/1 2/2/1 3/3/1
f 1/1/1 3/3/1 4/4/1
s 4
f 5/5/2 6/6/2 7/7/2
f 5/5/2 7/7/2 8/8/2
s 8
f 1/9/3 4/10/3 6/11/3
f 1/9/3 6/11/3 5/12/3
s 16
f 4/13/4 3/14/4 7/15/4
f 4/13/4 7/15/4 6/16/4
s 32
f 3/17/5 2/18/5 8/19/5
f 3/17/5 8/19/5 7/20/5
s 31
f 2/18/6 1/9/6 5/12/6
f 2/18/6 5/12/6 8/19/6
# 12 triangles in group

# 12 triangles total

