# Wavefront OBJ exported by MilkShape 3D

mtllib big shelf in kitchen.mtl

v 0.000000 9.999990 0.000000
v 9.999990 9.999990 0.000000
v 9.999990 9.999990 10.000000
v 0.000000 9.999990 10.000000
v 9.999990 -0.000013 10.000000
v 9.999990 -0.000013 0.000000
v 0.000000 -0.000013 0.000000
v 0.000000 -0.000013 10.000000
v 9.999990 9.999990 -10.000000
v 0.000000 9.999990 -10.000000
v 0.000000 -0.000013 -10.000000
v 9.999990 -0.000013 -10.000000
v -10.867617 9.999990 0.000000
v -10.867617 -0.000013 0.000000
v -10.867617 -0.000013 -10.000000
v -10.867617 9.999990 -10.000000
# 16 vertices

vt 0.309200 0.629300
vt 0.309300 0.791900
vt 0.471800 0.791800
vt 0.471800 0.629300
vt 0.195500 0.707200
vt 0.195500 0.544600
vt 0.033000 0.544600
vt 0.033000 0.707200
vt 0.146700 0.954400
vt 0.309300 0.954400
vt 0.146700 0.791900
vt 0.471800 0.954400
vt 0.634400 0.954400
vt 0.797000 0.954400
vt 0.797000 0.791800
vt 0.634400 0.791800
vt 0.634400 0.452600
vt 0.634400 0.290000
vt 0.471800 0.290000
vt 0.471800 0.452600
vt 0.634400 0.629300
vt 0.195500 0.382100
vt 0.033000 0.382100
vt 0.943200 0.368000
vt 0.671800 0.368000
vt 0.671800 0.639400
vt 0.943200 0.639400
vt 0.372200 0.544600
vt 0.372200 0.382100
vt 0.973600 0.954400
vt 0.973600 0.791800
vt 0.943200 0.073000
vt 0.671800 0.073000
# 33 texture coordinates

vn 0.000000 1.000000 0.000000
vn 0.000000 -1.000000 0.000000
vn 0.000000 0.000000 1.000000
vn 1.000000 0.000000 0.000000
vn 0.000000 0.000000 -1.000000
vn -0.666667 0.666667 -0.333333
vn -0.408248 -0.408248 -0.816497
vn -0.666667 -0.666667 0.333333
vn -0.408248 0.408248 0.816497
vn -0.666667 0.666667 0.333333
vn -0.408248 -0.408248 0.816497
vn -1.000000 0.000000 0.000000
vn 0.000000 -0.894427 -0.447214
vn 0.000000 0.447214 -0.894427
# 14 normals

g Box015
s 2
f 4/1/1 3/2/1 2/3/1
f 4/1/1 2/3/1 1/4/1
s 4
f 8/5/2 7/6/2 6/7/2
f 8/5/2 6/7/2 5/8/2
s 8
f 8/9/3 5/10/3 3/2/3
f 8/9/3 3/2/3 4/11/3
s 16
f 3/2/4 5/10/4 6/12/4
f 3/2/4 6/12/4 2/3/4
s 32
f 12/13/5 11/14/5 10/15/5
f 12/13/5 10/15/5 9/16/5
s 31
f 16/17/6 15/18/7 14/19/8
f 16/17/6 14/19/8 13/20/9
s 2
f 1/4/1 2/3/1 9/16/1
f 1/4/1 9/16/1 10/21/1
s 4
f 6/7/2 7/6/2 11/22/2
f 6/7/2 11/22/2 12/23/2
s 16
f 2/3/4 6/12/4 12/13/4
f 2/3/4 12/13/4 9/16/4
s 31
f 1/24/10 7/25/11 8/26/12
f 1/24/10 8/26/12 4/27/12
f 14/28/8 15/29/7 11/22/13
f 14/28/8 11/22/13 7/6/11
f 15/30/7 16/31/6 10/15/14
f 15/30/7 10/15/14 11/14/13
f 16/17/6 13/20/9 1/4/10
f 16/17/6 1/4/10 10/21/14
f 13/32/9 14/33/8 7/25/11
f 13/32/9 7/25/11 1/24/10
# 28 triangles in group

# 28 triangles total

