# Wavefront OBJ exported by MilkShape 3D

mtllib small shelf in kitchen.mtl

v -5.000000 9.999985 5.000000
v -5.000000 -0.000003 5.000000
v 5.000000 -0.000003 5.000000
v 5.000000 9.999985 5.000000
v -5.000000 9.999985 -5.000000
v 5.000000 9.999985 -5.000000
v 5.000000 -0.000003 -5.000000
v -5.000000 -0.000003 -5.000000
# 8 vertices

vt 0.742100 0.468900
vt 0.502500 0.468900
vt 0.502500 0.229300
vt 0.742100 0.229300
vt 0.742100 0.708500
vt 0.742100 0.948100
vt 0.502500 0.948100
vt 0.502500 0.708500
vt 0.981700 0.468900
vt 0.981700 0.708500
vt 0.023300 0.468900
vt 0.262900 0.468900
vt 0.262900 0.708500
vt 0.023300 0.708500
vt 0.031800 0.069100
vt 0.361800 0.069100
vt 0.361800 0.399200
vt 0.031800 0.399200
# 18 texture coordinates

vn 0.000000 0.000000 1.000000
vn 0.000000 0.000000 -1.000000
vn 0.000000 1.000000 0.000000
vn 1.000000 0.000000 0.000000
vn 0.000000 -1.000000 0.000000
vn -1.000000 0.000000 0.000000
# 6 normals

g Box013
usemtl Material01
s 2
f 1/1/1 2/2/1 3/3/1
f 1/1/1 3/3/1 4/4/1
s 4
f 5/5/2 6/6/2 7/7/2
f 5/5/2 7/7/2 8/8/2
s 8
f 1/1/3 4/9/3 6/10/3
f 1/1/3 6/10/3 5/5/3
s 16
f 4/11/4 3/12/4 7/13/4
f 4/11/4 7/13/4 6/14/4
s 32
f 3/12/5 2/2/5 8/8/5
f 3/12/5 8/8/5 7/13/5
s 31
f 2/15/6 1/16/6 5/17/6
f 2/15/6 5/17/6 8/18/6
# 12 triangles in group

# 12 triangles total

