# Wavefront OBJ exported by MilkShape 3D

v 1.249900 22.192230 -1.246900
v 1.249900 22.192230 1.038300
v -1.080900 22.192230 1.038300
v -1.080900 22.192230 -1.246900
v 1.249900 23.928932 -1.246900
v -1.080900 23.928932 -1.246900
v -1.080900 23.928932 1.038300
v 1.249900 23.928932 1.038300
v -1.775200 3.768331 2.081400
v -1.775200 0.626431 2.081400
v 2.585300 0.626431 2.081400
v 2.585300 3.768331 2.081400
v -1.775200 0.626431 -2.279200
v -1.775200 3.768331 -2.279200
v 2.585300 3.768331 -2.279200
v 2.585300 0.626431 -2.279200
v -2.902800 0.006831 3.209000
v -2.902800 0.006831 -3.406800
v 3.712900 0.006831 -3.406800
v 3.712900 0.006831 3.209000
v -2.902800 0.626431 -3.406800
v 3.712900 0.626431 -3.406800
v 3.712900 0.626431 3.209000
v -2.902800 0.626431 3.209000
v -0.555600 3.768331 0.861700
v 1.365700 3.768331 0.861700
v 1.365700 3.768331 -1.059600
v -0.555600 3.768331 -1.059600
v -0.555600 22.126131 0.861700
v 1.365700 22.126131 0.861700
v 1.365700 22.126131 -1.059600
v -0.555600 22.126131 -1.059600
v -4.384200 25.590031 4.690300
v -4.384200 22.126131 4.690300
v 5.194300 22.126131 4.690300
v 5.194300 25.590031 4.690300
v 5.194300 22.126131 -4.888200
v 5.194300 25.590031 -4.888200
v -4.384200 22.126131 -4.888200
v -4.384200 25.590031 -4.888200
v -3.765400 25.590031 4.071600
v 4.575500 25.590031 4.071600
v 4.575500 25.590031 -4.269400
v -3.765400 25.590031 -4.269400
v -3.765400 29.309132 4.071600
v 4.575500 29.309132 4.071600
v 4.575500 29.309132 -4.269400
v -3.765400 29.309132 -4.269400
v -3.404500 29.309132 3.710600
v 4.214600 29.309132 3.710600
v 4.214600 29.309132 -3.908500
v -3.404500 29.309132 -3.908500
v -3.404500 29.965431 3.710600
v 4.214600 29.965431 3.710600
v 4.214600 29.965431 -3.908500
v -3.404500 29.965431 -3.908500
v 3.311800 29.965431 -3.005600
v 3.311800 29.965431 2.807800
v -2.501700 29.965431 -3.005600
v -2.501700 29.965431 2.807800
v 2.424900 22.126131 1.920900
v -1.614800 22.126131 1.920900
v 2.424900 22.126131 -2.118800
v -1.614800 22.126131 -2.118800
v -3.325000 22.126131 3.631100
v 4.135100 22.126131 3.631100
v -3.325000 22.126131 -3.829000
v 4.135100 22.126131 -3.829000
# 68 vertices

vt 0.788300 0.594500
vt 0.900300 0.594500
vt 0.900300 0.708700
vt 0.788300 0.708700
vt 0.788300 0.908000
vt 0.788300 0.793800
vt 0.900300 0.793800
vt 0.900300 0.908000
vt 0.985400 0.594500
vt 0.985400 0.708700
vt 0.788300 0.509400
vt 0.900300 0.509400
vt 0.703200 0.708700
vt 0.703200 0.594500
vt 0.438300 0.161400
vt 0.438300 0.085800
vt 0.548900 0.085800
vt 0.548900 0.161400
vt 0.048500 0.213300
vt 0.048500 0.054500
vt 0.207300 0.054500
vt 0.207300 0.213300
vt 0.577200 0.059000
vt 0.409400 0.059000
vt 0.577200 0.044200
vt 0.409400 0.044200
vt 0.468100 0.190300
vt 0.514300 0.190300
vt 0.468100 0.655500
vt 0.514300 0.655500
vt 0.336400 0.789900
vt 0.336400 0.668200
vt 0.653900 0.668200
vt 0.653900 0.789900
vt 0.355200 0.811600
vt 0.631600 0.811600
vt 0.355200 0.942400
vt 0.631600 0.942400
vt 0.366800 0.955100
vt 0.619200 0.955100
vt 0.366800 0.978100
vt 0.619200 0.978100
vt 0.372600 0.255700
vt 0.372600 0.570500
vt 0.335300 0.533200
vt 0.335300 0.293000
vt 0.057700 0.570500
vt 0.095000 0.533200
vt 0.057700 0.255700
vt 0.095000 0.293000
vt 0.104200 0.707900
vt 0.176600 0.707900
vt 0.216600 0.747900
vt 0.064200 0.747900
vt 0.176600 0.635500
vt 0.216600 0.595600
vt 0.104200 0.635500
vt 0.064200 0.595600
# 58 texture coordinates

vn 0.000000 -1.000000 0.000000
vn 0.000000 1.000000 0.000000
vn 0.000000 0.000000 1.000000
vn 1.000000 0.000000 0.000000
vn 0.000000 0.000000 -1.000000
vn -1.000000 0.000000 0.000000
vn -0.267261 0.801784 0.534522
vn -0.534522 0.801784 0.267261
vn 0.267261 0.801784 0.534522
vn 0.534522 0.801784 0.267261
vn -0.267261 0.801784 -0.534522
vn -0.534522 0.801784 -0.267261
vn 0.267261 0.801784 -0.534522
vn 0.534522 0.801784 -0.267261
vn -0.666667 -0.666667 0.333333
vn -0.408248 -0.408248 -0.816497
vn 0.666667 -0.666667 -0.333333
vn 0.408248 -0.408248 0.816497
vn -0.267261 -0.801784 0.534522
vn 0.534522 -0.801784 0.267261
vn 0.267261 -0.801784 -0.534522
vn -0.534522 -0.801784 -0.267261
vn -0.534522 -0.801784 0.267261
vn 0.267261 -0.801784 0.534522
vn 0.534522 -0.801784 -0.267261
vn -0.267261 -0.801784 -0.534522
# 26 normals

g Object001
s 2
f 1/1/1 2/2/1 3/3/1
f 1/1/1 3/3/1 4/4/1
s 4
f 5/5/2 6/6/2 7/7/2
f 5/5/2 7/7/2 8/8/2
s 8
f 8/9/3 7/10/3 3/3/3
f 8/9/3 3/3/3 2/2/3
s 16
f 5/11/4 8/12/4 2/2/4
f 5/11/4 2/2/4 1/1/4
s 32
f 6/13/5 5/14/5 1/1/5
f 6/13/5 1/1/5 4/4/5
s 31
f 7/7/6 6/6/6 4/4/6
f 7/7/6 4/4/6 3/3/6
f 9/15/7 10/16/8 11/17/9
f 9/15/7 11/17/9 12/18/10
f 13/17/11 14/18/12 15/15/13
f 13/17/11 15/15/13 16/16/14
f 17/19/15 18/20/16 19/21/17
f 17/19/15 19/21/17 20/22/18
f 12/15/10 11/16/9 16/17/14
f 12/15/10 16/17/14 15/18/13
f 14/15/12 13/16/11 10/17/8
f 14/15/12 10/17/8 9/18/7
f 21/23/12 13/17/11 16/16/14
f 21/23/12 16/16/14 22/24/13
f 22/23/13 16/17/14 11/16/9
f 22/23/13 11/16/9 23/24/10
f 23/23/10 11/17/9 10/16/8
f 23/23/10 10/16/8 24/24/7
f 24/23/7 10/17/8 13/16/11
f 24/23/7 13/16/11 21/24/12
f 18/25/16 21/23/12 22/24/13
f 18/25/16 22/24/13 19/26/17
f 19/25/17 22/23/13 23/24/10
f 19/25/17 23/24/10 20/26/18
f 20/25/18 23/23/10 24/24/7
f 20/25/18 24/24/7 17/26/15
f 17/25/15 24/23/7 21/24/12
f 17/25/15 21/24/12 18/26/16
f 25/27/8 9/15/7 12/18/10
f 25/27/8 12/18/10 26/28/9
f 26/27/9 12/15/10 15/18/13
f 26/27/9 15/18/13 27/28/14
f 27/27/14 15/15/13 14/18/12
f 27/27/14 14/18/12 28/28/11
f 28/27/11 14/15/12 9/18/7
f 28/27/11 9/18/7 25/28/8
f 29/29/19 25/27/8 26/28/9
f 29/29/19 26/28/9 30/30/20
f 30/29/20 26/27/9 27/28/14
f 30/29/20 27/28/14 31/30/21
f 31/29/21 27/27/14 28/28/11
f 31/29/21 28/28/11 32/30/22
f 32/29/22 28/27/11 25/28/8
f 32/29/22 25/28/8 29/30/19
f 33/31/7 34/32/23 35/33/24
f 33/31/7 35/33/24 36/34/10
f 36/31/10 35/32/24 37/33/25
f 36/31/10 37/33/25 38/34/13
f 38/31/13 37/32/25 39/33/26
f 38/31/13 39/33/26 40/34/12
f 40/31/12 39/32/26 34/33/23
f 40/31/12 34/33/23 33/34/7
f 41/35/8 33/31/7 36/34/10
f 41/35/8 36/34/10 42/36/9
f 42/35/9 36/31/10 38/34/13
f 42/35/9 38/34/13 43/36/14
f 43/35/14 38/31/13 40/34/12
f 43/35/14 40/34/12 44/36/11
f 44/35/11 40/31/12 33/34/7
f 44/35/11 33/34/7 41/36/8
f 45/37/7 41/35/8 42/36/9
f 45/37/7 42/36/9 46/38/10
f 46/37/10 42/35/9 43/36/14
f 46/37/10 43/36/14 47/38/13
f 47/37/13 43/35/14 44/36/11
f 47/37/13 44/36/11 48/38/12
f 48/37/12 44/35/11 41/36/8
f 48/37/12 41/36/8 45/38/7
f 49/39/8 45/37/7 46/38/10
f 49/39/8 46/38/10 50/40/9
f 50/39/9 46/37/10 47/38/13
f 50/39/9 47/38/13 51/40/14
f 51/39/14 47/37/13 48/38/12
f 51/39/14 48/38/12 52/40/11
f 52/39/11 48/37/12 45/38/7
f 52/39/11 45/38/7 49/40/8
f 53/41/7 49/39/8 50/40/9
f 53/41/7 50/40/9 54/42/10
f 54/41/10 50/39/9 51/40/14
f 54/41/10 51/40/14 55/42/13
f 55/41/13 51/39/14 52/40/11
f 55/41/13 52/40/11 56/42/12
f 56/41/12 52/39/11 49/40/8
f 56/41/12 49/40/8 53/42/7
f 54/43/10 55/44/13 57/45/2
f 54/43/10 57/45/2 58/46/2
f 55/44/13 56/47/12 59/48/2
f 55/44/13 59/48/2 57/45/2
f 56/47/12 53/49/7 60/50/2
f 56/47/12 60/50/2 59/48/2
f 53/49/7 54/43/10 58/46/2
f 53/49/7 58/46/2 60/50/2
f 29/51/19 30/52/20 61/53/1
f 29/51/19 61/53/1 62/54/1
f 30/52/20 31/55/21 63/56/1
f 30/52/20 63/56/1 61/53/1
f 31/55/21 32/57/22 64/58/1
f 31/55/21 64/58/1 63/56/1
f 32/57/22 29/51/19 62/54/1
f 32/57/22 62/54/1 64/58/1
f 35/33/24 34/32/23 65/32/1
f 35/33/24 65/32/1 66/33/1
f 34/33/23 39/32/26 67/32/1
f 34/33/23 67/32/1 65/33/1
f 39/33/26 37/32/25 68/32/1
f 39/33/26 68/32/1 67/33/1
f 37/33/25 35/32/24 66/32/1
f 37/33/25 66/32/1 68/33/1
# 118 triangles in group

# 118 triangles total

