# 3ds Max Wavefront OBJ Exporter v0.97b - (c)2007 guruware
# File Created: 24.08.2014 00:04:11

mtllib lamp.mtl

#
# object pCube004
#

v  3.9260 0.0677 3.9260
v  3.9260 1.0263 3.9260
v  -3.9260 1.0263 3.9260
v  -3.9260 0.0677 3.9260
v  3.9260 1.0263 -3.9260
v  3.9260 0.0677 -3.9260
v  -3.9260 0.0677 -3.9260
v  -3.9260 1.0263 -3.9260
v  0.9638 1.0263 0.9638
v  -0.9638 1.0263 0.9638
v  0.9638 1.0263 -0.9638
v  -0.9638 1.0263 -0.9638
v  0.9638 5.8176 0.9638
v  -0.9638 5.8176 0.9638
v  0.9638 5.8176 -0.9638
v  -0.9638 5.8176 -0.9638
v  1.5905 5.8176 1.5905
v  1.5905 8.8083 1.5905
v  -1.5905 8.8083 1.5905
v  -1.5905 5.8176 1.5905
v  1.5905 5.8176 -1.5905
v  1.5905 8.8083 -1.5905
v  -1.5905 5.8176 -1.5905
v  -1.5905 8.8083 -1.5905
v  5.6992 8.8083 5.6992
v  5.6992 10.6340 5.6992
v  -5.6992 10.6340 5.6992
v  -5.6992 8.8083 5.6992
v  5.6992 8.8083 -5.6992
v  5.6992 10.6340 -5.6992
v  -5.6992 8.8083 -5.6992
v  -5.6992 10.6340 -5.6992
v  4.2785 9.9939 4.2785
v  -4.2785 9.9939 4.2785
v  4.2785 9.9939 -4.2785
v  -4.2785 9.9939 -4.2785
v  4.2785 15.3091 4.2785
v  -4.2785 15.3091 4.2785
v  4.2785 15.3091 -4.2785
v  -4.2785 15.3091 -4.2785
v  2.7097 15.3091 2.7097
v  -2.7097 15.3091 2.7097
v  2.7097 15.3091 -2.7097
v  -2.7097 15.3091 -2.7097
v  2.7097 19.0222 2.7097
v  -2.7097 19.0222 2.7097
v  2.7097 19.0222 -2.7097
v  -2.7097 19.0222 -2.7097
v  1.9977 19.0222 -1.9977
v  1.9977 19.0222 1.9977
v  -1.9977 19.0222 -1.9977
v  -1.9977 19.0222 1.9977
v  2.5008 8.8083 2.5008
v  -2.5008 8.8083 2.5008
v  2.5008 8.8083 -2.5008
v  -2.5008 8.8083 -2.5008
v  -4.7890 8.8083 4.7890
v  4.7890 8.8083 4.7890
v  -4.7890 8.8083 -4.7890
v  4.7890 8.8083 -4.7890
v  1.2499 9.0230 -1.1595
v  1.2499 9.0230 1.1257
v  -1.0809 9.0230 1.1257
v  -1.0809 9.0230 -1.1595
v  1.2499 10.7597 -1.1595
v  -1.0809 10.7597 -1.1595
v  -1.0809 10.7597 1.1257
v  1.2499 10.7597 1.1257
# 68 vertices

vn 0.0000 0.0000 1.0000
vn 0.0000 0.0000 -1.0000
vn 0.0000 -1.0000 -0.0000
vn 1.0000 0.0000 -0.0000
vn -1.0000 -0.0000 -0.0000
vn 0.0000 1.0000 -0.0000
vn 0.0000 -0.2516 0.9678
vn 0.9678 -0.2516 -0.0000
vn 0.0000 -0.2516 -0.9678
vn -1.0000 0.0000 -0.0000
vn -0.9678 -0.2516 -0.0000
vn 0.0000 -0.0838 0.9965
vn 0.9965 -0.0838 -0.0000
vn 0.0000 -0.0838 -0.9965
vn -0.9965 -0.0838 -0.0000
vn -0.0000 1.0000 -0.0000
vn -0.0000 1.0000 0.0000
vn 0.0000 1.0000 0.0000
# 18 vertex normals

vt 0.6107 0.0488 0.0000
vt 0.6104 0.0781 0.0000
vt 0.3679 0.0758 0.0000
vt 0.3684 0.0460 0.0000
vt 0.9888 0.0263 0.0000
vt 0.9888 0.2887 0.0000
vt 0.7264 0.2887 0.0000
vt 0.7264 0.0263 0.0000
vt 0.5184 0.1682 0.0000
vt 0.4586 0.1680 0.0000
vt 0.5187 0.3156 0.0000
vt 0.4597 0.3163 0.0000
vt 0.5385 0.3342 0.0000
vt 0.5410 0.4263 0.0000
vt 0.4428 0.4288 0.0000
vt 0.4406 0.3364 0.0000
vt 0.6775 0.4732 0.0000
vt 0.6774 0.5295 0.0000
vt 0.3257 0.5291 0.0000
vt 0.3258 0.4727 0.0000
vt 0.6335 0.5775 0.0000
vt 0.3695 0.5772 0.0000
vt 0.6333 0.7415 0.0000
vt 0.3693 0.7412 0.0000
vt 0.5849 0.7898 0.0000
vt 0.4177 0.7897 0.0000
vt 0.5848 0.9044 0.0000
vt 0.4175 0.9042 0.0000
vt 0.2606 0.2168 0.0000
vt 0.0881 0.2168 0.0000
vt 0.0573 0.1860 0.0000
vt 0.2913 0.1860 0.0000
vt 0.2606 0.3893 0.0000
vt 0.2913 0.4200 0.0000
vt 0.0881 0.3893 0.0000
vt 0.0573 0.4200 0.0000
vt 0.7883 0.5945 0.0000
vt 0.9003 0.5945 0.0000
vt 0.9003 0.7087 0.0000
vt 0.7883 0.7087 0.0000
vt 0.7883 0.9080 0.0000
vt 0.7883 0.7938 0.0000
vt 0.9003 0.7938 0.0000
vt 0.9003 0.9080 0.0000
vt 0.9854 0.5945 0.0000
vt 0.9854 0.7087 0.0000
vt 0.7883 0.5094 0.0000
vt 0.9003 0.5094 0.0000
vt 0.7032 0.7087 0.0000
vt 0.7032 0.5945 0.0000
# 50 texture coords

g pCube004
usemtl Material__37
s off
f 1/1/1 2/2/1 3/3/1 4/4/1 
f 5/3/2 6/4/2 7/1/2 8/2/2 
f 6/5/3 1/6/3 4/7/3 7/8/3 
f 6/1/4 5/2/4 2/3/4 1/4/4 
f 4/1/5 3/2/5 8/3/5 7/4/5 
f 2/2/6 9/9/6 10/10/6 3/3/6 
f 5/2/6 11/9/6 9/10/6 2/3/6 
f 8/2/6 12/9/6 11/10/6 5/3/6 
f 3/2/6 10/9/6 12/10/6 8/3/6 
f 9/9/1 13/11/7 14/12/7 10/10/1 
f 11/9/4 15/11/8 13/12/8 9/10/4 
f 12/9/2 16/11/9 15/12/9 11/10/2 
f 10/9/10 14/11/11 16/12/11 12/10/10 
f 17/13/12 18/14/1 19/15/1 20/16/12 
f 21/13/13 22/14/4 18/15/4 17/16/13 
f 23/13/14 24/14/2 22/15/2 21/16/14 
f 20/13/15 19/14/10 24/15/10 23/16/15 
f 25/17/1 26/18/1 27/19/1 28/20/1 
f 29/17/4 30/18/4 26/19/4 25/20/4 
f 31/17/2 32/18/2 30/19/2 29/20/2 
f 28/17/10 27/18/10 32/19/10 31/20/10 
f 26/18/16 33/21/16 34/22/6 27/19/6 
f 30/18/17 35/21/17 33/22/16 26/19/16 
f 32/18/18 36/21/18 35/22/17 30/19/17 
f 27/18/6 34/21/6 36/22/18 32/19/18 
f 33/21/1 37/23/1 38/24/1 34/22/1 
f 35/21/4 39/23/4 37/24/4 33/22/4 
f 36/21/2 40/23/2 39/24/2 35/22/2 
f 34/21/10 38/23/10 40/24/10 36/22/10 
f 37/23/6 41/25/6 42/26/6 38/24/6 
f 39/23/6 43/25/6 41/26/6 37/24/6 
f 40/23/6 44/25/6 43/26/6 39/24/6 
f 38/23/6 42/25/6 44/26/6 40/24/6 
f 41/25/1 45/27/1 46/28/1 42/26/1 
f 43/25/4 47/27/4 45/28/4 41/26/4 
f 44/25/2 48/27/2 47/28/2 43/26/2 
f 42/25/10 46/27/10 48/28/10 44/26/10 
f 20/13/15 23/16/15 16/12/11 14/11/11 
f 14/12/7 13/11/7 17/13/12 20/16/12 
f 13/12/8 15/11/8 21/13/13 17/16/13 
f 15/12/9 16/11/9 23/13/14 21/16/14 
f 49/29/6 50/30/6 45/31/6 47/32/6 
f 51/33/6 49/29/6 47/32/6 48/34/6 
f 52/35/6 51/33/6 48/34/6 46/36/6 
f 50/30/6 52/35/6 46/36/6 45/31/6 
f 53/14/3 54/15/3 19/15/3 18/14/3 
f 55/14/3 53/15/3 18/15/3 22/14/3 
f 56/14/3 55/15/3 22/15/3 24/14/3 
f 54/14/3 56/15/3 24/15/3 19/14/3 
f 57/20/3 58/17/3 25/17/3 28/20/3 
f 59/20/3 57/17/3 28/17/3 31/20/3 
f 60/20/3 59/17/3 31/17/3 29/20/3 
f 58/20/3 60/17/3 29/17/3 25/20/3 
s 2
f 61/37/3 62/38/3 63/39/3 64/40/3 
s 4
f 65/41/6 66/42/6 67/43/6 68/44/6 
s 8
f 68/45/1 67/46/1 63/39/1 62/38/1 
s 16
f 65/47/4 68/48/4 62/38/4 61/37/4 
s 32
f 66/49/2 65/50/2 61/37/2 64/40/2 
s 64
f 67/43/10 66/42/10 64/40/10 63/39/10 
# 59 polygons

