# Wavefront OBJ exported by MilkShape 3D

mtllib mirror.mtl

v -21.712400 16.027079 0.452935
v -21.712400 0.010087 0.452935
v -10.856200 0.010087 0.452935
v -10.856200 16.027079 0.452935
v 0.000000 0.010087 0.452935
v 0.000000 16.027079 0.452935
v 10.856200 0.010087 0.452935
v 10.856200 16.027079 0.452935
v 21.712400 0.010087 0.452935
v 21.712400 16.027079 0.452935
v -21.712400 32.044174 0.452935
v -10.856200 32.044174 0.452935
v 0.000000 32.044174 0.452935
v 10.856200 32.044174 0.452935
v 21.712400 32.044174 0.452935
v -21.712400 48.061325 0.452935
v -10.856200 48.061325 0.452935
v 0.000000 48.061325 0.452935
v 10.856200 48.061325 0.452935
v 21.712400 48.061325 0.452935
v -21.712400 64.078323 0.452935
v -10.856200 64.078323 0.452935
v 0.000000 64.078323 0.452935
v 10.856200 64.078323 0.452935
v 21.712400 64.078323 0.452935
v -10.856200 16.027079 -0.547066
v -10.856200 0.010087 -0.547066
v -21.712400 0.010087 -0.547066
v -21.712400 16.027079 -0.547066
v 0.000000 16.027079 -0.547066
v 0.000000 0.010087 -0.547066
v 10.856200 16.027079 -0.547066
v 10.856200 0.010087 -0.547066
v 21.712400 16.027079 -0.547066
v 21.712400 0.010087 -0.547066
v -10.856200 32.044174 -0.547066
v -21.712400 32.044174 -0.547066
v 0.000000 32.044174 -0.547066
v 10.856200 32.044174 -0.547066
v 21.712400 32.044174 -0.547066
v -10.856200 48.061325 -0.547066
v -21.712400 48.061325 -0.547066
v 0.000000 48.061325 -0.547066
v 10.856200 48.061325 -0.547066
v 21.712400 48.061325 -0.547066
v -10.856200 64.078323 -0.547066
v -21.712400 64.078323 -0.547066
v 0.000000 64.078323 -0.547066
v 10.856200 64.078323 -0.547066
v 21.712400 64.078323 -0.547066
# 50 vertices

vt 0.000000 0.250000
vt 0.000000 0.000000
vt 0.250000 0.000000
vt 0.250000 0.250000
vt 0.500000 0.000000
vt 0.500000 0.250000
vt 0.750000 0.000000
vt 0.750000 0.250000
vt 1.000000 0.000000
vt 1.000000 0.250000
vt 0.000000 0.500000
vt 0.250000 0.500000
vt 0.500000 0.500000
vt 0.750000 0.500000
vt 1.000000 0.500000
vt 0.000000 0.750000
vt 0.250000 0.750000
vt 0.500000 0.750000
vt 0.750000 0.750000
vt 1.000000 0.750000
vt 0.000000 1.000000
vt 0.250000 1.000000
vt 0.500000 1.000000
vt 0.750000 1.000000
vt 1.000000 1.000000
# 25 texture coordinates

vn 0.000000 0.000000 1.000000
vn 0.000000 0.000000 -1.000000
vn -1.000000 0.000000 0.000000
vn 0.000000 -1.000000 0.000000
vn 1.000000 0.000000 0.000000
vn 0.000000 1.000000 0.000000
# 6 normals

g Plane001
usemtl Material01
s 1
f 1/1/1 2/2/1 3/3/1
f 1/1/1 3/3/1 4/4/1
f 4/4/1 3/3/1 5/5/1
f 4/4/1 5/5/1 6/6/1
f 6/6/1 5/5/1 7/7/1
f 6/6/1 7/7/1 8/8/1
f 8/8/1 7/7/1 9/9/1
f 8/8/1 9/9/1 10/10/1
f 11/11/1 1/1/1 4/4/1
f 11/11/1 4/4/1 12/12/1
f 12/12/1 4/4/1 6/6/1
f 12/12/1 6/6/1 13/13/1
f 13/13/1 6/6/1 8/8/1
f 13/13/1 8/8/1 14/14/1
f 14/14/1 8/8/1 10/10/1
f 14/14/1 10/10/1 15/15/1
f 16/16/1 11/11/1 12/12/1
f 16/16/1 12/12/1 17/17/1
f 17/17/1 12/12/1 13/13/1
f 17/17/1 13/13/1 18/18/1
f 18/18/1 13/13/1 14/14/1
f 18/18/1 14/14/1 19/19/1
f 19/19/1 14/14/1 15/15/1
f 19/19/1 15/15/1 20/20/1
f 21/21/1 16/16/1 17/17/1
f 21/21/1 17/17/1 22/22/1
f 22/22/1 17/17/1 18/18/1
f 22/22/1 18/18/1 23/23/1
f 23/23/1 18/18/1 19/19/1
f 23/23/1 19/19/1 24/24/1
f 24/24/1 19/19/1 20/20/1
f 24/24/1 20/20/1 25/25/1
f 26/4/2 27/3/2 28/2/2
f 26/4/2 28/2/2 29/1/2
f 30/6/2 31/5/2 27/3/2
f 30/6/2 27/3/2 26/4/2
f 32/8/2 33/7/2 31/5/2
f 32/8/2 31/5/2 30/6/2
f 34/10/2 35/9/2 33/7/2
f 34/10/2 33/7/2 32/8/2
f 36/12/2 26/4/2 29/1/2
f 36/12/2 29/1/2 37/11/2
f 38/13/2 30/6/2 26/4/2
f 38/13/2 26/4/2 36/12/2
f 39/14/2 32/8/2 30/6/2
f 39/14/2 30/6/2 38/13/2
f 40/15/2 34/10/2 32/8/2
f 40/15/2 32/8/2 39/14/2
f 41/17/2 36/12/2 37/11/2
f 41/17/2 37/11/2 42/16/2
f 43/18/2 38/13/2 36/12/2
f 43/18/2 36/12/2 41/17/2
f 44/19/2 39/14/2 38/13/2
f 44/19/2 38/13/2 43/18/2
f 45/20/2 40/15/2 39/14/2
f 45/20/2 39/14/2 44/19/2
f 46/22/2 41/17/2 42/16/2
f 46/22/2 42/16/2 47/21/2
f 48/23/2 43/18/2 41/17/2
f 48/23/2 41/17/2 46/22/2
f 49/24/2 44/19/2 43/18/2
f 49/24/2 43/18/2 48/23/2
f 50/25/2 45/20/2 44/19/2
f 50/25/2 44/19/2 49/24/2
s 2
f 2/2/3 1/1/3 29/1/3
f 2/2/3 29/1/3 28/2/3
s 4
f 3/3/4 2/2/4 28/2/4
f 3/3/4 28/2/4 27/3/4
f 5/5/4 3/3/4 27/3/4
f 5/5/4 27/3/4 31/5/4
f 7/7/4 5/5/4 31/5/4
f 7/7/4 31/5/4 33/7/4
s 2
f 10/10/5 9/9/5 35/9/5
f 10/10/5 35/9/5 34/10/5
s 4
f 9/9/4 7/7/4 33/7/4
f 9/9/4 33/7/4 35/9/4
s 2
f 1/1/3 11/11/3 37/11/3
f 1/1/3 37/11/3 29/1/3
f 15/15/5 10/10/5 34/10/5
f 15/15/5 34/10/5 40/15/5
f 11/11/3 16/16/3 42/16/3
f 11/11/3 42/16/3 37/11/3
f 20/20/5 15/15/5 40/15/5
f 20/20/5 40/15/5 45/20/5
f 16/16/3 21/21/3 47/21/3
f 16/16/3 47/21/3 42/16/3
s 4
f 21/21/6 22/22/6 46/22/6
f 21/21/6 46/22/6 47/21/6
f 22/22/6 23/23/6 48/23/6
f 22/22/6 48/23/6 46/22/6
f 23/23/6 24/24/6 49/24/6
f 23/23/6 49/24/6 48/23/6
f 24/24/6 25/25/6 50/25/6
f 24/24/6 50/25/6 49/24/6
s 2
f 25/25/5 20/20/5 45/20/5
f 25/25/5 45/20/5 50/25/5
# 96 triangles in group

# 96 triangles total

