# Wavefront OBJ exported by MilkShape 3D

v -1.465600 0.572821 1.465600
v -1.465600 0.009321 1.465600
v 1.465600 0.009321 1.465600
v 1.465600 0.572821 1.465600
v -0.418900 11.886724 -0.416700
v -0.418900 11.886724 0.416700
v 0.418900 11.886724 0.416700
v 0.418900 11.886724 -0.416700
v -1.465600 0.009321 -1.465600
v -1.465600 0.572821 -1.465600
v 1.465600 0.572821 -1.465600
v 1.465600 0.009321 -1.465600
v -1.025900 0.572821 1.025900
v 1.025900 0.572821 1.025900
v 1.025900 0.572821 -1.025900
v -1.025900 0.572821 -1.025900
v -1.025900 1.142121 1.025900
v 1.025900 1.142121 1.025900
v 1.025900 1.142121 -1.025900
v -1.025900 1.142121 -1.025900
v -0.433500 1.142121 0.431200
v 0.433500 1.142121 0.431200
v 0.433500 1.142121 -0.431200
v -0.433500 1.142121 -0.431200
v -0.433500 2.622222 0.431200
v 0.433500 2.622222 0.431200
v 0.433500 2.622222 -0.431200
v -0.433500 2.622222 -0.431200
v -0.670600 6.362123 0.667000
v -0.670600 4.639123 0.667000
v 0.670600 4.639123 0.667000
v 0.670600 6.362123 0.667000
v 0.670600 4.639123 -0.667000
v 0.670600 6.362123 -0.667000
v -0.670600 4.639123 -0.667000
v -0.670600 6.362123 -0.667000
v -1.106800 6.362123 1.100900
v 1.106800 6.362123 1.100900
v 1.106800 6.362123 -1.100900
v -1.106800 6.362123 -1.100900
v -1.106800 7.320623 1.100900
v 1.106800 7.320623 1.100900
v 1.106800 7.320623 -1.100900
v -1.106800 7.320623 -1.100900
v -0.858800 7.320623 0.854300
v 0.858800 7.320623 0.854300
v 0.858800 7.320623 -0.854300
v -0.858800 7.320623 -0.854300
v -0.858800 8.564123 0.854300
v 0.858800 8.564123 0.854300
v 0.858800 8.564123 -0.854300
v -0.858800 8.564123 -0.854300
v -0.418900 8.564123 0.416700
v 0.418900 8.564123 0.416700
v 0.418900 8.564123 -0.416700
v -0.418900 8.564123 -0.416700
v -1.121000 2.629222 1.111500
v -0.332100 2.629222 0.326800
v 0.325000 2.629222 0.326800
v 1.114000 2.629222 1.111500
v 0.325000 2.629222 -0.326800
v 1.114000 2.629222 -1.111500
v -0.332100 2.629222 -0.326800
v -1.121000 2.629222 -1.111500
v -1.121000 4.632123 1.111500
v 1.114000 4.632123 1.111500
v 1.114000 4.632123 -1.111500
v -1.121000 4.632123 -1.111500
v -0.511800 4.632123 0.505600
v 0.504800 4.632123 0.505600
v 0.504800 4.632123 -0.505600
v -0.511800 4.632123 -0.505600
# 72 vertices

vt 0.113500 0.048400
vt 0.113500 0.014200
vt 0.294100 0.014200
vt 0.294100 0.048400
vt 0.284800 0.985800
vt 0.284900 0.921900
vt 0.348900 0.921900
vt 0.349000 0.985800
vt 0.373600 0.176600
vt 0.373600 0.036500
vt 0.513700 0.036500
vt 0.513700 0.176600
vt 0.140800 0.075000
vt 0.267000 0.075000
vt 0.140800 0.109800
vt 0.267000 0.109800
vt 0.177600 0.146300
vt 0.230300 0.146300
vt 0.177600 0.236200
vt 0.230300 0.236200
vt 0.163700 0.574100
vt 0.163700 0.470300
vt 0.244100 0.470300
vt 0.244100 0.574100
vt 0.137600 0.600300
vt 0.270300 0.600300
vt 0.137600 0.657400
vt 0.270300 0.657400
vt 0.152500 0.672200
vt 0.255500 0.672200
vt 0.152500 0.747800
vt 0.255500 0.747800
vt 0.180100 0.774400
vt 0.229600 0.774400
vt 0.180100 0.976200
vt 0.229600 0.976200
vt 0.115200 0.299200
vt 0.292600 0.299200
vt 0.115200 0.421700
vt 0.292600 0.421700
# 40 texture coordinates

vn -0.267261 0.801784 0.534522
vn -0.666667 -0.666667 0.333333
vn 0.408248 -0.408248 0.816497
vn 0.534522 0.801784 0.267261
vn -0.666667 0.666667 -0.333333
vn -0.408248 0.408248 0.816497
vn 0.666667 0.666667 0.333333
vn 0.408248 0.408248 -0.816497
vn -0.408248 -0.408248 -0.816497
vn -0.534522 0.801784 -0.267261
vn 0.267261 0.801784 -0.534522
vn 0.666667 -0.666667 -0.333333
vn -0.534522 0.801784 0.267261
vn 0.267261 0.801784 0.534522
vn 0.534522 0.801784 -0.267261
vn -0.267261 0.801784 -0.534522
vn -0.447214 0.000000 0.894427
vn 0.894427 0.000000 0.447214
vn 0.447214 0.000000 -0.894427
vn -0.894427 0.000000 -0.447214
vn -0.267261 -0.801784 0.534522
vn -0.894427 0.000000 0.447214
vn 0.447214 0.000000 0.894427
vn 0.534522 -0.801784 0.267261
vn 0.894427 0.000000 -0.447214
vn 0.267261 -0.801784 -0.534522
vn -0.447214 0.000000 -0.894427
vn -0.534522 -0.801784 -0.267261
vn -0.534522 -0.801784 0.267261
vn 0.267261 -0.801784 0.534522
vn 0.534522 -0.801784 -0.267261
vn -0.267261 -0.801784 -0.534522
vn 0.000000 -1.000000 0.000000
vn 0.000000 1.000000 0.000000
# 34 normals

g pCube002
s 1
f 1/1/1 2/2/2 3/3/3
f 1/1/1 3/3/3 4/4/4
f 5/5/5 6/6/6 7/7/7
f 5/5/5 7/7/7 8/8/8
f 9/3/9 10/4/10 11/1/11
f 9/3/9 11/1/11 12/2/12
f 2/9/2 9/10/9 12/11/12
f 2/9/2 12/11/12 3/12/3
f 4/1/4 3/2/3 12/3/12
f 4/1/4 12/3/12 11/4/11
f 10/1/10 9/2/9 2/3/2
f 10/1/10 2/3/2 1/4/1
f 13/13/13 1/1/1 4/4/4
f 13/13/13 4/4/4 14/14/14
f 14/13/14 4/1/4 11/4/11
f 14/13/14 11/4/11 15/14/15
f 15/13/15 11/1/11 10/4/10
f 15/13/15 10/4/10 16/14/16
f 16/13/16 10/1/10 1/4/1
f 16/13/16 1/4/1 13/14/13
f 17/15/1 13/13/13 14/14/14
f 17/15/1 14/14/14 18/16/4
f 18/15/4 14/13/14 15/14/15
f 18/15/4 15/14/15 19/16/11
f 19/15/11 15/13/15 16/14/16
f 19/15/11 16/14/16 20/16/10
f 20/15/10 16/13/16 13/14/13
f 20/15/10 13/14/13 17/16/1
f 21/17/13 17/15/1 18/16/4
f 21/17/13 18/16/4 22/18/14
f 22/17/14 18/15/4 19/16/11
f 22/17/14 19/16/11 23/18/15
f 23/17/15 19/15/11 20/16/10
f 23/17/15 20/16/10 24/18/16
f 24/17/16 20/15/10 17/16/1
f 24/17/16 17/16/1 21/18/13
f 25/19/17 21/17/13 22/18/14
f 25/19/17 22/18/14 26/20/18
f 26/19/18 22/17/14 23/18/15
f 26/19/18 23/18/15 27/20/19
f 27/19/19 23/17/15 24/18/16
f 27/19/19 24/18/16 28/20/20
f 28/19/20 24/17/16 21/18/13
f 28/19/20 21/18/13 25/20/17
f 29/21/21 30/22/22 31/23/23
f 29/21/21 31/23/23 32/24/24
f 32/21/24 31/22/23 33/23/25
f 32/21/24 33/23/25 34/24/26
f 34/21/26 33/22/25 35/23/27
f 34/21/26 35/23/27 36/24/28
f 36/21/28 35/22/27 30/23/22
f 36/21/28 30/23/22 29/24/21
f 37/25/29 29/21/21 32/24/24
f 37/25/29 32/24/24 38/26/30
f 38/25/30 32/21/24 34/24/26
f 38/25/30 34/24/26 39/26/31
f 39/25/31 34/21/26 36/24/28
f 39/25/31 36/24/28 40/26/32
f 40/25/32 36/21/28 29/24/21
f 40/25/32 29/24/21 37/26/29
f 41/27/1 37/25/29 38/26/30
f 41/27/1 38/26/30 42/28/4
f 42/27/4 38/25/30 39/26/31
f 42/27/4 39/26/31 43/28/11
f 43/27/11 39/25/31 40/26/32
f 43/27/11 40/26/32 44/28/10
f 44/27/10 40/25/32 37/26/29
f 44/27/10 37/26/29 41/28/1
f 45/29/13 41/27/1 42/28/4
f 45/29/13 42/28/4 46/30/14
f 46/29/14 42/27/4 43/28/11
f 46/29/14 43/28/11 47/30/15
f 47/29/15 43/27/11 44/28/10
f 47/29/15 44/28/10 48/30/16
f 48/29/16 44/27/10 41/28/1
f 48/29/16 41/28/1 45/30/13
f 49/31/1 45/29/13 46/30/14
f 49/31/1 46/30/14 50/32/4
f 50/31/4 46/29/14 47/30/15
f 50/31/4 47/30/15 51/32/11
f 51/31/11 47/29/15 48/30/16
f 51/31/11 48/30/16 52/32/10
f 52/31/10 48/29/16 45/30/13
f 52/31/10 45/30/13 49/32/1
f 53/33/13 49/31/1 50/32/4
f 53/33/13 50/32/4 54/34/14
f 54/33/14 50/31/4 51/32/11
f 54/33/14 51/32/11 55/34/15
f 55/33/15 51/31/11 52/32/10
f 55/33/15 52/32/10 56/34/16
f 56/33/16 52/31/10 49/32/1
f 56/33/16 49/32/1 53/34/13
f 6/35/6 53/33/13 54/34/14
f 6/35/6 54/34/14 7/36/7
f 7/35/7 54/33/14 55/34/15
f 7/35/7 55/34/15 8/36/8
f 8/35/8 55/33/15 56/34/16
f 8/35/8 56/34/16 5/36/5
f 5/35/5 56/33/16 53/34/13
f 5/35/5 53/34/13 6/36/6
f 57/37/29 58/19/33 59/20/33
f 57/37/29 59/20/33 60/38/30
f 60/37/30 59/19/33 61/20/33
f 60/37/30 61/20/33 62/38/31
f 62/37/31 61/19/33 63/20/33
f 62/37/31 63/20/33 64/38/32
f 64/37/32 63/19/33 58/20/33
f 64/37/32 58/20/33 57/38/29
f 65/39/1 57/37/29 60/38/30
f 65/39/1 60/38/30 66/40/4
f 66/39/4 60/37/30 62/38/31
f 66/39/4 62/38/31 67/40/11
f 67/39/11 62/37/31 64/38/32
f 67/39/11 64/38/32 68/40/10
f 68/39/10 64/37/32 57/38/29
f 68/39/10 57/38/29 65/40/1
f 69/22/34 65/39/1 66/40/4
f 69/22/34 66/40/4 70/23/34
f 70/22/34 66/39/4 67/40/11
f 70/22/34 67/40/11 71/23/34
f 71/22/34 67/39/11 68/40/10
f 71/22/34 68/40/10 72/23/34
f 72/22/34 68/39/10 65/40/1
f 72/22/34 65/40/1 69/23/34
# 124 triangles in group

# 124 triangles total

