# 3ds Max Wavefront OBJ Exporter v0.97b - (c)2007 guruware
# File Created: 31.08.2014 21:31:17

mtllib small chair.mtl

#
# object pCube002
#

v  -2.4021 6.9891 2.4021
v  -2.4021 6.4482 2.4021
v  -1.8494 6.4482 2.4021
v  -1.8494 6.9891 2.4021
v  -2.4021 6.9891 1.8494
v  -1.8494 6.9891 1.8494
v  -2.4021 6.4482 -2.4021
v  -2.4021 6.9891 -2.4021
v  -1.8494 6.9891 -2.4021
v  -1.8494 6.4482 -2.4021
v  -2.4021 0.0022 2.4021
v  -2.4021 0.0022 1.8494
v  -1.8494 0.0022 1.8494
v  -1.8494 0.0022 2.4021
v  2.4021 6.9891 2.4021
v  2.4021 6.4482 2.4021
v  2.4021 6.4482 1.8494
v  2.4021 6.9891 1.8494
v  -2.4021 6.4482 1.8494
v  2.4021 6.4482 -2.4021
v  1.8494 6.4482 -2.4021
v  1.8494 6.9891 -2.4021
v  2.4021 6.9891 -2.4021
v  2.4021 0.0022 2.4021
v  1.8494 0.0022 2.4021
v  1.8494 0.0022 1.8494
v  2.4021 0.0022 1.8494
v  1.8494 6.9891 2.4021
v  1.8494 6.4482 2.4021
v  1.8494 6.9891 1.8494
v  -2.4021 6.4482 -1.8494
v  -2.4021 6.9891 -1.8494
v  -2.4021 0.0022 -1.8494
v  -2.4021 0.0022 -2.4021
v  -1.8494 0.0022 -2.4021
v  -1.8494 0.0022 -1.8494
v  2.4021 0.0022 -2.4021
v  2.4021 0.0022 -1.8494
v  1.8494 0.0022 -1.8494
v  1.8494 0.0022 -2.4021
v  2.4021 6.9891 -1.8494
v  2.4021 6.4482 -1.8494
v  1.8494 6.9891 -1.8494
v  -1.8494 6.9891 -1.8494
v  -1.8494 6.4482 -1.8494
v  1.8494 6.4482 -1.8494
v  1.8494 6.4482 1.8494
v  -1.8494 6.4482 1.8494
# 48 vertices

vn 0.0000 0.0000 1.0000
vn 0.0000 1.0000 -0.0000
vn 0.0000 0.0000 -1.0000
vn 0.0000 -1.0000 -0.0000
vn 1.0000 0.0000 -0.0000
vn -1.0000 0.0000 -0.0000
# 6 vertex normals

vt 0.0922 0.9313 0.0000
vt 0.0442 0.9313 0.0000
vt 0.0442 0.8825 0.0000
vt 0.0922 0.8825 0.0000
vt 0.1410 0.9313 0.0000
vt 0.1410 0.8825 0.0000
vt 0.5643 0.9313 0.0000
vt 0.5166 0.9313 0.0000
vt 0.5166 0.8825 0.0000
vt 0.5643 0.8825 0.0000
vt 0.7667 0.1016 0.0000
vt 0.7667 0.0281 0.0000
vt 0.8408 0.0281 0.0000
vt 0.8408 0.1016 0.0000
vt 0.0922 0.5069 0.0000
vt 0.0922 0.4589 0.0000
vt 0.1410 0.4589 0.0000
vt 0.1410 0.5069 0.0000
vt 0.1410 0.9790 0.0000
vt 0.0922 0.9790 0.0000
vt 0.5643 0.5069 0.0000
vt 0.5643 0.5557 0.0000
vt 0.5166 0.5557 0.0000
vt 0.5166 0.5069 0.0000
vt 0.0922 0.5557 0.0000
vt 0.0442 0.5557 0.0000
vt 0.0442 0.5069 0.0000
vt 0.1410 0.5557 0.0000
vt 0.5166 0.9790 0.0000
vt 0.4678 0.9790 0.0000
vt 0.4678 0.9313 0.0000
vt 0.4678 0.5069 0.0000
vt 0.4678 0.4589 0.0000
vt 0.5166 0.4589 0.0000
vt 0.4678 0.5557 0.0000
vt 0.4678 0.8825 0.0000
vt 0.4678 0.0833 0.0000
vt 0.5166 0.0833 0.0000
vt 0.5166 0.4101 0.0000
vt 0.4678 0.4101 0.0000
vt 0.1410 0.4101 0.0000
vt 0.0922 0.0833 0.0000
vt 0.1410 0.0833 0.0000
vt 0.0922 0.4101 0.0000
vt 0.4678 0.0343 0.0000
vt 0.1410 0.0343 0.0000
vt 0.6913 0.1016 0.0000
vt 0.6913 0.9705 0.0000
vt 0.6172 0.9705 0.0000
vt 0.6172 0.1016 0.0000
vt 0.9156 0.1016 0.0000
vt 0.9156 0.9705 0.0000
vt 0.8408 0.9705 0.0000
vt 0.7667 0.9705 0.0000
# 54 texture coords

g pCube002
usemtl Material__32
s 1
f 1/1/1 2/2/1 3/3/1 4/4/1 
s 2
f 5/5/2 1/1/2 4/4/2 6/6/2 
s 3
f 7/7/3 8/8/3 9/9/3 10/10/3 
s off
f 11/11/4 12/12/4 13/13/4 14/14/4 
s 4
f 15/15/5 16/16/5 17/17/5 18/18/5 
s 5
f 1/1/6 5/5/6 19/19/6 2/20/6 
s 3
f 20/21/3 21/22/3 22/23/3 23/24/3 
s off
f 24/11/4 25/12/4 26/13/4 27/14/4 
s 1
f 15/15/1 28/25/1 29/26/1 16/27/1 
s 2
f 15/15/2 18/18/2 30/28/2 28/25/2 
s 5
f 8/8/6 7/29/6 31/30/6 32/31/6 
s off
f 33/14/4 34/11/4 35/12/4 36/13/4 
f 37/11/4 38/12/4 39/13/4 40/14/4 
s 4
f 23/24/5 41/32/5 42/33/5 20/34/5 
s 2
f 23/24/2 22/23/2 43/35/2 41/32/2 
f 8/8/2 32/31/2 44/36/2 9/9/2 
f 43/35/2 22/23/2 9/9/2 44/36/2 
s 3
f 10/10/3 9/9/3 22/23/3 21/22/3 
s 9
f 45/37/4 10/38/4 21/39/4 46/40/4 
f 17/17/4 47/41/4 46/40/4 42/33/4 
f 3/42/4 48/43/4 47/41/4 29/44/4 
f 31/45/4 45/37/4 48/43/4 19/46/4 
s 1
f 4/4/1 3/3/1 29/26/1 28/25/1 
s 2
f 6/6/2 4/4/2 28/25/2 30/28/2 
f 5/5/2 6/6/2 44/36/2 32/31/2 
f 41/32/2 43/35/2 30/28/2 18/18/2 
s 5
f 19/19/6 5/5/6 32/31/6 31/30/6 
s 4
f 18/18/5 17/17/5 42/33/5 41/32/5 
s 9
f 45/37/4 46/40/4 47/41/4 48/43/4 
s 2
f 43/35/2 44/36/2 6/6/2 30/28/2 
s off
f 12/47/3 19/48/3 48/49/3 13/50/3 
f 13/51/5 48/52/5 3/53/5 14/14/5 
s 1
f 14/14/1 3/53/1 2/54/1 11/11/1 
s 5
f 11/11/6 2/54/6 19/48/6 12/47/6 
s off
f 25/47/6 29/48/6 47/49/6 26/50/6 
f 26/51/3 47/52/3 17/53/3 27/14/3 
s 4
f 27/14/5 17/53/5 16/54/5 24/11/5 
s 1
f 24/11/1 16/54/1 29/48/1 25/47/1 
s 3
f 34/11/3 7/54/3 10/48/3 35/47/3 
s off
f 35/47/5 10/48/5 45/49/5 36/50/5 
f 36/51/1 45/52/1 31/53/1 33/14/1 
s 5
f 33/14/6 31/53/6 7/54/6 34/11/6 
s off
f 38/47/1 42/48/1 46/49/1 39/50/1 
f 39/51/6 46/52/6 21/53/6 40/14/6 
s 3
f 40/14/3 21/53/3 20/54/3 37/11/3 
s 4
f 37/11/5 20/54/5 42/48/5 38/47/5 
# 46 polygons

