# Wavefront OBJ exported by MilkShape 3D

v 24.267500 50.451218 -20.657906
v 24.267500 50.451218 20.657906
v -24.267500 50.451218 20.657906
v -24.267500 50.451218 -20.657906
v 16.318701 59.994720 -11.264695
v -16.318701 59.994720 -11.264695
v -16.318701 59.994720 13.412112
v 16.318701 59.994720 13.412112
v 24.267500 68.404327 20.657906
v -24.267500 68.404327 20.657906
v 24.267500 68.404327 -20.657906
v -24.267500 68.404327 -20.657906
v 20.265800 68.404327 16.656212
v -20.265800 68.404327 16.656212
v 20.265800 68.404327 -11.574094
v -20.265800 68.404327 -11.574094
v 22.338900 66.617325 -15.994002
v 17.925900 66.617325 -12.839895
v 15.315500 66.617325 -16.492306
v 19.728399 66.617325 -19.646305
v 22.338900 76.084213 -15.994002
v 19.728399 76.084213 -19.646305
v 15.315500 76.084213 -16.492306
v 17.925900 76.084213 -12.839895
v 8.686800 70.666519 -6.294195
v 8.686800 74.832321 -6.294195
v 6.807300 74.832321 -8.923897
v 6.807300 70.666519 -8.923897
v 19.624599 70.666519 -14.473498
v 17.745100 70.666519 -17.103207
v 17.745100 74.832321 -17.103207
v 19.624599 74.832321 -14.473498
v 11.056800 -0.038982 -19.503506
v 11.056800 -0.038982 2.528102
v -11.056800 -0.038982 2.528102
v -11.056800 -0.038982 -19.503506
v 11.056800 54.581215 -19.503506
v -11.056800 54.581215 -19.503506
v -11.056800 54.581215 2.528102
v 11.056800 54.581215 2.528102
# 40 vertices

vt 0.140100 0.237800
vt 0.140100 0.009000
vt 0.408900 0.009000
vt 0.408900 0.237800
vt 0.136800 0.298400
vt 0.330200 0.298400
vt 0.330200 0.444600
vt 0.136800 0.444600
vt 0.407200 0.635500
vt 0.135500 0.635500
vt 0.135500 0.535000
vt 0.407200 0.535000
vt 0.407200 0.866700
vt 0.507700 0.635500
vt 0.507700 0.866700
vt 0.135500 0.866700
vt 0.407200 0.967200
vt 0.135500 0.967200
vt 0.035000 0.866700
vt 0.035000 0.635500
vt 0.384800 0.657900
vt 0.157900 0.657900
vt 0.384800 0.815900
vt 0.157900 0.815900
vt 0.353600 0.498000
vt 0.113400 0.498000
vt 0.081800 0.463900
vt 0.081700 0.296600
vt 0.113400 0.248500
vt 0.353600 0.248500
vt 0.385200 0.296500
vt 0.385200 0.463800
vt 0.449100 0.553200
vt 0.517900 0.553200
vt 0.517900 0.610100
vt 0.449100 0.610100
vt 0.694800 0.678800
vt 0.637900 0.678800
vt 0.637900 0.610100
vt 0.694800 0.610100
vt 0.637900 0.553200
vt 0.637900 0.484400
vt 0.517900 0.484400
vt 0.637900 0.735700
vt 0.517900 0.735700
vt 0.517900 0.678800
vt 0.842500 0.779700
vt 0.841600 0.736600
vt 0.875000 0.735900
vt 0.875900 0.779000
vt 0.765100 0.561200
vt 0.765100 0.594600
vt 0.722000 0.594600
vt 0.722000 0.561200
vt 0.841600 0.595400
vt 0.875000 0.594600
vt 0.798500 0.595300
vt 0.798500 0.736600
vt 0.765100 0.735900
vt 0.722000 0.735900
vt 0.718200 0.551400
vt 0.718200 0.432300
vt 0.837700 0.432300
vt 0.837700 0.551400
vt 0.718200 0.018000
vt 0.837700 0.018000
vt 0.837700 0.137100
vt 0.718200 0.137100
vt 0.599100 0.137100
vt 0.599100 0.432300
vt 0.479600 0.137100
vt 0.479600 0.432300
vt 0.956800 0.137100
vt 0.956800 0.432300
# 74 texture coordinates

vn 0.000000 -1.000000 0.000000
vn 0.000000 1.000000 0.000000
vn 0.000000 0.000000 1.000000
vn 1.000000 0.000000 0.000000
vn 0.000000 0.000000 -1.000000
vn -0.554700 0.832050 0.000000
vn -0.316228 0.948683 0.000000
vn -1.000000 0.000000 0.000000
vn -0.387147 0.900175 -0.199505
vn 0.195322 0.894288 -0.402615
vn -0.219214 0.847171 0.483990
vn 0.411246 0.882809 0.226992
vn -0.382139 0.483222 -0.787697
vn 0.764278 0.510650 -0.393848
vn -0.804666 0.394015 0.444145
vn 0.402333 0.221519 0.888289
vn -0.813572 0.000000 0.581465
vn 0.581478 0.000000 0.813562
vn 0.813600 0.000000 -0.581500
vn -0.581474 0.000000 -0.813565
vn 0.598873 0.000000 0.800844
vn -0.598873 0.000000 -0.800844
# 22 normals

g Box002
s 2
f 1/1/1 2/2/1 3/3/1
f 1/1/1 3/3/1 4/4/1
s 4
f 5/5/2 6/6/2 7/7/2
f 5/5/2 7/7/2 8/8/2
s 8
f 9/9/3 10/10/3 3/11/3
f 9/9/3 3/11/3 2/12/3
s 16
f 11/13/4 9/9/4 2/14/4
f 11/13/4 2/14/4 1/15/4
s 32
f 12/16/5 11/13/5 1/17/5
f 12/16/5 1/17/5 4/18/5
s 31
f 10/10/6 12/16/7 4/19/8
f 10/10/6 4/19/8 3/20/8
f 13/21/9 14/22/10 10/10/6
f 13/21/9 10/10/6 9/9/2
f 15/23/11 13/21/9 9/9/2
f 15/23/11 9/9/2 11/13/2
f 16/24/12 15/23/11 11/13/2
f 16/24/12 11/13/2 12/16/7
f 14/22/10 16/24/12 12/16/7
f 14/22/10 12/16/7 10/10/6
f 8/8/13 7/7/14 14/25/10
f 8/8/13 14/25/10 13/26/9
f 5/5/15 8/8/13 13/27/9
f 5/5/15 13/27/9 15/28/11
f 6/6/16 5/5/15 15/29/11
f 6/6/16 15/29/11 16/30/12
f 7/7/14 6/6/16 16/31/12
f 7/7/14 16/31/12 14/32/10
s 2
f 17/33/1 18/34/1 19/35/1
f 17/33/1 19/35/1 20/36/1
s 4
f 21/37/2 22/38/2 23/39/2
f 21/37/2 23/39/2 24/40/2
s 8
f 24/41/17 23/39/17 19/35/17
f 24/41/17 19/35/17 18/34/17
s 16
f 21/42/18 24/41/18 18/34/18
f 21/42/18 18/34/18 17/43/18
s 32
f 22/38/19 21/44/19 17/45/19
f 22/38/19 17/45/19 20/46/19
s 31
f 23/39/20 22/38/20 20/46/20
f 23/39/20 20/46/20 19/35/20
s 2
f 25/47/17 26/48/17 27/49/17
f 25/47/17 27/49/17 28/50/17
s 4
f 29/51/19 30/52/19 31/53/19
f 29/51/19 31/53/19 32/54/19
s 8
f 32/55/2 31/56/2 27/49/2
f 32/55/2 27/49/2 26/48/2
s 16
f 29/57/21 32/55/21 26/48/21
f 29/57/21 26/48/21 25/58/21
s 32
f 30/52/1 29/57/1 25/58/1
f 30/52/1 25/58/1 28/59/1
s 31
f 31/53/22 30/52/22 28/59/22
f 31/53/22 28/59/22 27/60/22
s 2
f 33/61/1 34/62/1 35/63/1
f 33/61/1 35/63/1 36/64/1
s 4
f 37/65/2 38/66/2 39/67/2
f 37/65/2 39/67/2 40/68/2
s 8
f 40/68/3 39/67/3 35/63/3
f 40/68/3 35/63/3 34/62/3
s 16
f 37/69/4 40/68/4 34/62/4
f 37/69/4 34/62/4 33/70/4
s 32
f 38/71/5 37/69/5 33/70/5
f 38/71/5 33/70/5 36/72/5
s 31
f 39/67/8 38/73/8 36/74/8
f 39/67/8 36/74/8 35/63/8
# 64 triangles in group

# 64 triangles total

