# Wavefront OBJ exported by MilkShape 3D

v 37.399055 0.025799 -24.511398
v 37.399055 0.025799 42.852604
v 22.697653 0.025799 42.852604
v 22.697649 0.025799 -24.511398
v 22.697653 46.028698 42.852604
v 37.399055 46.028698 42.852604
v 37.399055 46.028698 -24.511398
v 22.697649 46.028698 -24.511398
v -22.612255 19.830799 -24.511395
v -22.612253 19.830799 42.852604
v 22.697653 19.830799 42.852604
v 22.697649 19.830799 -24.511398
v 37.399055 19.830799 42.852604
v 37.399055 19.830799 -24.511398
v 22.697649 19.830799 -42.852600
v 37.399055 19.830799 -42.852600
v 37.399055 0.025799 -42.852600
v 22.697649 0.025799 -42.852600
v -22.612257 0.025799 -42.852596
v -22.612257 19.830799 -42.852596
v 22.697649 78.474205 -24.511398
v 37.399055 78.474205 -24.511398
v 37.399055 78.474205 -42.852600
v 22.697649 78.474205 -42.852600
v -22.612257 78.474205 -42.852596
v -22.612255 78.474205 -24.511395
v 37.399055 46.028698 -42.852600
v 22.697649 46.028698 -42.852600
v -22.612257 46.028698 -42.852596
v -22.214247 30.815697 -40.201706
v -22.214243 30.815697 32.598896
v 22.271948 30.815697 32.598896
v 22.271944 30.815697 -40.201706
v 22.271948 17.783298 32.598896
v 22.271944 17.783298 -40.201706
v -22.214247 17.783298 -40.201706
v -22.214243 17.783298 32.598896
v -37.399055 0.025799 -24.511395
v -22.697750 0.025799 -24.511395
v -22.697748 0.025799 42.852604
v -37.399055 0.025799 42.852604
v -22.697748 46.028698 42.852604
v -22.697750 46.028698 -24.511395
v -37.399055 46.028698 -24.511395
v -37.399055 46.028698 42.852604
v -37.399055 19.830799 42.852604
v -37.399055 19.830799 -24.511395
v -22.697752 19.830799 -42.852596
v -22.697752 0.025799 -42.852596
v -37.399055 0.025799 -42.852596
v -37.399055 19.830799 -42.852596
v -22.697748 19.830799 42.852604
v -22.697750 78.474205 -24.511395
v -22.697752 78.474205 -42.852596
v -37.399055 78.474205 -42.852596
v -37.399055 78.474205 -24.511395
v -37.399055 46.028698 -42.852596
v -22.697752 46.028698 -42.852596
v -22.697750 19.830799 -24.511395
v -22.612253 0.025799 42.852604
v -22.612255 0.025799 -24.511395
v -22.612255 46.028698 -24.511395
# 62 vertices

vt 0.313600 0.794700
vt 0.313600 0.979500
vt 0.273200 0.979500
vt 0.273200 0.794700
vt 0.345100 0.132900
vt 0.385400 0.132900
vt 0.385400 0.317800
vt 0.345100 0.317800
vt 0.148900 0.317800
vt 0.148900 0.133000
vt 0.273200 0.133000
vt 0.273200 0.317800
vt 0.457300 0.132900
vt 0.511600 0.132900
vt 0.511700 0.317700
vt 0.457300 0.317700
vt 0.273200 0.690000
vt 0.313600 0.690000
vt 0.313600 0.744300
vt 0.273200 0.744300
vt 0.148900 0.744300
vt 0.148900 0.690000
vt 0.385400 0.061000
vt 0.345100 0.061100
vt 0.345100 0.006700
vt 0.385400 0.006700
vt 0.273200 0.478700
vt 0.313600 0.478700
vt 0.313600 0.529100
vt 0.273200 0.529100
vt 0.148900 0.529100
vt 0.148900 0.478700
vt 0.363900 0.690000
vt 0.363900 0.744300
vt 0.313600 0.618100
vt 0.363900 0.618100
vt 0.273200 0.618100
vt 0.148900 0.618100
vt 0.273200 0.389700
vt 0.313600 0.389700
vt 0.363900 0.529100
vt 0.480400 0.766700
vt 0.480400 0.459800
vt 0.667900 0.459800
vt 0.667900 0.766700
vt 0.722800 0.459800
vt 0.722800 0.766700
vt 0.667900 0.821700
vt 0.480400 0.821700
vt 0.480400 0.404900
vt 0.667900 0.404900
vt 0.148900 0.979500
vt 0.148900 0.794700
vt 0.273200 0.078600
vt 0.148900 0.078600
vt 0.148900 0.389700
# 56 texture coordinates

vn 0.000000 -1.000000 0.000000
vn 0.000000 1.000000 0.000000
vn 0.970142 0.000000 0.242536
vn 1.000000 0.000000 0.000000
vn -0.000000 0.000000 -1.000000
vn 0.000000 0.000000 1.000000
vn 0.707107 0.000000 -0.707107
vn 0.980581 0.000000 0.196116
vn 0.447214 0.000000 0.894427
vn -0.894427 0.000000 0.447214
vn -0.447214 0.000000 0.894427
vn -1.000000 0.000000 0.000000
vn 0.894427 0.000000 -0.447214
vn -0.970142 0.000000 0.242536
vn -0.707107 0.000000 -0.707107
vn -0.980581 0.000000 0.196116
vn 0.894427 0.000000 0.447214
vn -0.894427 0.000000 -0.447214
# 18 normals

g Box006
s 2
f 1/1/1 2/2/1 3/3/1
f 1/1/1 3/3/1 4/4/1
s 4
f 5/5/2 6/6/2 7/7/2
f 5/5/2 7/7/2 8/8/2
f 9/9/2 10/10/2 11/11/2
f 9/9/2 11/11/2 12/12/2
s 8
f 13/13/3 2/14/4 1/15/4
f 13/13/3 1/15/4 14/16/4
s 16
f 15/17/5 16/18/5 17/19/5
f 15/17/5 17/19/5 18/20/5
f 19/21/5 20/22/5 15/17/5
f 19/21/5 15/17/5 18/20/5
s 31
f 13/23/6 11/24/6 3/25/6
f 13/23/6 3/25/6 2/26/6
s 2
f 1/1/1 4/4/1 18/20/1
f 1/1/1 18/20/1 17/19/1
s 4
f 21/27/2 22/28/2 23/29/2
f 21/27/2 23/29/2 24/30/2
f 25/31/2 26/32/2 21/27/2
f 25/31/2 21/27/2 24/30/2
s 8
f 14/33/4 1/34/4 17/19/4
f 14/33/4 17/19/4 16/18/7
f 7/7/8 6/6/9 13/13/3
f 7/7/8 13/13/3 14/16/4
f 27/35/7 7/36/8 14/33/4
f 27/35/7 14/33/4 16/18/7
f 28/37/5 27/35/7 16/18/7
f 28/37/5 16/18/7 15/17/5
f 20/22/5 29/38/5 28/37/5
f 20/22/5 28/37/5 15/17/5
f 5/5/10 8/8/11 12/12/12
f 5/5/10 12/12/12 11/11/11
f 6/6/9 5/5/10 11/24/11
f 6/6/9 11/24/11 13/23/3
f 22/28/9 21/27/6 8/39/11
f 22/28/9 8/39/11 7/40/8
f 23/29/13 22/41/9 7/36/8
f 23/29/13 7/36/8 27/35/7
f 24/30/5 23/29/13 27/35/7
f 24/30/5 27/35/7 28/37/5
f 29/38/5 25/31/5 24/30/5
f 29/38/5 24/30/5 28/37/5
s 4
f 30/42/2 31/43/2 32/44/2
f 30/42/2 32/44/2 33/45/2
s 8
f 33/45/4 32/44/4 34/46/4
f 33/45/4 34/46/4 35/47/4
s 16
f 30/42/5 33/45/5 35/48/5
f 30/42/5 35/48/5 36/49/5
s 31
f 32/44/6 31/43/6 37/50/6
f 32/44/6 37/50/6 34/51/6
s 2
f 38/1/1 39/4/1 40/3/1
f 38/1/1 40/3/1 41/2/1
s 4
f 42/5/2 43/8/2 44/7/2
f 42/5/2 44/7/2 45/6/2
s 8
f 46/13/14 47/16/12 38/15/12
f 46/13/14 38/15/12 41/14/12
s 16
f 48/17/5 49/20/5 50/19/5
f 48/17/5 50/19/5 51/18/5
s 31
f 46/23/6 41/26/6 40/25/6
f 46/23/6 40/25/6 52/24/6
s 2
f 38/1/1 50/19/1 49/20/1
f 38/1/1 49/20/1 39/4/1
s 4
f 53/27/2 54/30/2 55/29/2
f 53/27/2 55/29/2 56/28/2
s 8
f 47/33/12 51/18/15 50/19/12
f 47/33/12 50/19/12 38/34/12
f 44/7/16 47/16/12 46/13/14
f 44/7/16 46/13/14 45/6/11
f 57/35/15 51/18/15 47/33/12
f 57/35/15 47/33/12 44/36/16
f 58/37/5 48/17/5 51/18/15
f 58/37/5 51/18/15 57/35/15
f 42/5/17 52/11/9 59/12/4
f 42/5/17 59/12/4 43/8/9
f 45/6/11 46/23/14 52/24/9
f 45/6/11 52/24/9 42/5/17
f 56/28/11 44/40/16 43/39/9
f 56/28/11 43/39/9 53/27/6
f 55/29/18 57/35/15 44/36/16
f 55/29/18 44/36/16 56/41/11
f 54/30/5 58/37/5 57/35/15
f 54/30/5 57/35/15 55/29/18
s 2
f 4/4/1 3/3/1 60/52/1
f 4/4/1 60/52/1 61/53/1
s 31
f 3/54/6 11/11/6 10/10/6
f 3/54/6 10/10/6 60/55/6
s 2
f 18/20/1 4/4/1 61/53/1
f 18/20/1 61/53/1 19/21/1
f 12/12/6 8/39/6 62/56/6
f 12/12/6 62/56/6 9/9/6
f 8/39/6 21/27/6 26/32/6
f 8/39/6 26/32/6 62/56/6
# 92 triangles in group

# 92 triangles total

