# Wavefront OBJ exported by MilkShape 3D

v 59.922546 0.109135 -24.511400
v 59.922546 0.109135 42.852604
v 45.221153 0.109135 42.852604
v 45.221153 0.109135 -24.511400
v 45.221153 46.112034 42.852604
v 59.922546 46.112034 42.852604
v 59.922546 46.112034 -24.511400
v 45.221153 46.112034 -24.511400
v -45.398643 19.914131 -24.511396
v -45.398643 19.914131 42.852604
v 45.221153 19.914131 42.852604
v 45.221153 19.914131 -24.511400
v 59.922546 19.914131 42.852604
v 59.922546 19.914131 -24.511400
v 45.221153 19.914131 -42.852604
v 59.922546 19.914131 -42.852604
v 59.922546 0.109135 -42.852604
v 45.221153 0.109135 -42.852604
v -45.398643 0.109135 -42.852600
v -45.398643 19.914131 -42.852600
v 45.221153 78.557526 -24.511400
v 59.922546 78.557526 -24.511400
v 59.922546 78.557526 -42.852604
v 45.221153 78.557526 -42.852604
v -45.398643 78.557526 -42.852600
v -45.398643 78.557526 -24.511396
v 59.922546 46.112034 -42.852604
v 45.221153 46.112034 -42.852604
v -45.398643 46.112034 -42.852600
v 0.309347 30.899029 -40.201691
v 0.309349 30.899029 32.598911
v 44.795448 30.899029 32.598896
v 44.795448 30.899029 -40.201691
v 44.795448 17.866631 32.598896
v 44.795448 17.866631 -40.201691
v 0.309347 17.866631 -40.201691
v 0.309349 17.866631 32.598911
v -45.143944 30.899029 -40.201691
v -45.143944 30.899029 32.598911
v -0.657753 30.899029 32.598911
v -0.657755 30.899029 -40.201691
v -0.657753 17.866631 32.598911
v -0.657755 17.866631 -40.201691
v -45.143944 17.866631 -40.201691
v -45.143944 17.866631 32.598911
v -45.398643 0.109135 42.852604
v -45.398643 0.109135 -24.511396
v -45.398643 46.112034 -24.511396
v -59.922546 0.109135 -24.511396
v -45.221146 0.109135 -24.511396
v -45.221146 0.109135 42.852604
v -59.922546 0.109135 42.852604
v -45.221146 46.112034 42.852604
v -45.221146 46.112034 -24.511396
v -59.922546 46.112034 -24.511396
v -59.922546 46.112034 42.852604
v -59.922546 19.914131 42.852604
v -59.922546 19.914131 -24.511396
v -45.221146 19.914131 -42.852600
v -45.221146 0.109135 -42.852600
v -59.922546 0.109135 -42.852600
v -59.922546 19.914131 -42.852600
v -45.221146 19.914131 42.852604
v -45.221146 78.557526 -24.511396
v -45.221146 78.557526 -42.852600
v -59.922546 78.557526 -42.852600
v -59.922546 78.557526 -24.511396
v -59.922546 46.112034 -42.852600
v -45.221146 46.112034 -42.852600
v -45.221146 19.914131 -24.511396
# 70 vertices

vt 0.313600 0.794700
vt 0.313600 0.979500
vt 0.273200 0.979500
vt 0.273200 0.794700
vt 0.345100 0.132900
vt 0.385400 0.132900
vt 0.385400 0.317800
vt 0.345100 0.317800
vt 0.024600 0.317800
vt 0.024600 0.133000
vt 0.273200 0.133000
vt 0.273200 0.317800
vt 0.457300 0.132900
vt 0.511600 0.132900
vt 0.511700 0.317700
vt 0.457300 0.317700
vt 0.273200 0.690000
vt 0.313600 0.690000
vt 0.313600 0.744300
vt 0.273200 0.744300
vt 0.024600 0.744400
vt 0.024600 0.690000
vt 0.385400 0.061000
vt 0.345100 0.061100
vt 0.345100 0.006700
vt 0.385400 0.006700
vt 0.273200 0.478700
vt 0.313600 0.478700
vt 0.313600 0.529100
vt 0.273200 0.529100
vt 0.024600 0.529100
vt 0.024600 0.478800
vt 0.363900 0.690000
vt 0.363900 0.744300
vt 0.313600 0.618100
vt 0.363900 0.618100
vt 0.273200 0.618100
vt 0.024600 0.618100
vt 0.273200 0.389700
vt 0.313600 0.389700
vt 0.363900 0.529100
vt 0.480400 0.766700
vt 0.480400 0.459800
vt 0.667900 0.459800
vt 0.667900 0.766700
vt 0.722800 0.459800
vt 0.722800 0.766700
vt 0.667900 0.821700
vt 0.480400 0.821700
vt 0.425500 0.766700
vt 0.425500 0.459800
vt 0.480400 0.404900
vt 0.667900 0.404900
vt 0.024600 0.979500
vt 0.024600 0.794700
vt 0.273200 0.078600
vt 0.024600 0.078600
vt 0.024600 0.389700
# 58 texture coordinates

vn 0.000000 -1.000000 0.000000
vn 0.000000 1.000000 0.000000
vn 0.970142 0.000000 0.242536
vn 1.000000 0.000000 0.000000
vn -0.000000 0.000000 -1.000000
vn 0.000000 0.000000 1.000000
vn 0.707107 0.000000 -0.707107
vn 0.980581 0.000000 0.196116
vn 0.447214 0.000000 0.894427
vn -0.894427 0.000000 0.447214
vn -0.447214 0.000000 0.894427
vn -1.000000 0.000000 0.000000
vn 0.894427 0.000000 -0.447214
vn -0.970142 0.000000 0.242536
vn -0.707107 0.000000 -0.707107
vn -0.980581 0.000000 0.196116
vn 0.894427 0.000000 0.447214
vn -0.894427 0.000000 -0.447214
# 18 normals

g Box004
s 2
f 1/1/1 2/2/1 3/3/1
f 1/1/1 3/3/1 4/4/1
s 4
f 5/5/2 6/6/2 7/7/2
f 5/5/2 7/7/2 8/8/2
f 9/9/2 10/10/2 11/11/2
f 9/9/2 11/11/2 12/12/2
s 8
f 13/13/3 2/14/4 1/15/4
f 13/13/3 1/15/4 14/16/4
s 16
f 15/17/5 16/18/5 17/19/5
f 15/17/5 17/19/5 18/20/5
f 19/21/5 20/22/5 15/17/5
f 19/21/5 15/17/5 18/20/5
s 31
f 13/23/6 11/24/6 3/25/6
f 13/23/6 3/25/6 2/26/6
s 2
f 1/1/1 4/4/1 18/20/1
f 1/1/1 18/20/1 17/19/1
s 4
f 21/27/2 22/28/2 23/29/2
f 21/27/2 23/29/2 24/30/2
f 25/31/2 26/32/2 21/27/2
f 25/31/2 21/27/2 24/30/2
s 8
f 14/33/4 1/34/4 17/19/4
f 14/33/4 17/19/4 16/18/7
f 7/7/8 6/6/9 13/13/3
f 7/7/8 13/13/3 14/16/4
f 27/35/7 7/36/8 14/33/4
f 27/35/7 14/33/4 16/18/7
f 28/37/5 27/35/7 16/18/7
f 28/37/5 16/18/7 15/17/5
f 20/22/5 29/38/5 28/37/5
f 20/22/5 28/37/5 15/17/5
f 5/5/10 8/8/11 12/12/12
f 5/5/10 12/12/12 11/11/11
f 6/6/9 5/5/10 11/24/11
f 6/6/9 11/24/11 13/23/3
f 22/28/9 21/27/6 8/39/11
f 22/28/9 8/39/11 7/40/8
f 23/29/13 22/41/9 7/36/8
f 23/29/13 7/36/8 27/35/7
f 24/30/5 23/29/13 27/35/7
f 24/30/5 27/35/7 28/37/5
f 29/38/5 25/31/5 24/30/5
f 29/38/5 24/30/5 28/37/5
s 4
f 30/42/2 31/43/2 32/44/2
f 30/42/2 32/44/2 33/45/2
s 8
f 33/45/4 32/44/4 34/46/4
f 33/45/4 34/46/4 35/47/4
s 16
f 30/42/5 33/45/5 35/48/5
f 30/42/5 35/48/5 36/49/5
s 32
f 31/43/5 30/42/5 36/50/5
f 31/43/5 36/50/5 37/51/5
s 31
f 32/44/6 31/43/6 37/52/6
f 32/44/6 37/52/6 34/53/6
s 4
f 38/42/2 39/43/2 40/44/2
f 38/42/2 40/44/2 41/45/2
s 8
f 41/45/4 40/44/4 42/46/4
f 41/45/4 42/46/4 43/47/4
s 16
f 38/42/5 41/45/5 43/48/5
f 38/42/5 43/48/5 44/49/5
s 31
f 40/44/6 39/43/6 45/52/6
f 40/44/6 45/52/6 42/53/6
s 2
f 4/4/1 3/3/1 46/54/1
f 4/4/1 46/54/1 47/55/1
s 31
f 3/56/6 11/11/6 10/10/6
f 3/56/6 10/10/6 46/57/6
s 2
f 18/20/1 4/4/1 47/55/1
f 18/20/1 47/55/1 19/21/1
f 12/12/6 8/39/6 48/58/6
f 12/12/6 48/58/6 9/9/6
f 8/39/6 21/27/6 26/32/6
f 8/39/6 26/32/6 48/58/6
f 49/1/1 50/4/1 51/3/1
f 49/1/1 51/3/1 52/2/1
s 4
f 53/5/2 54/8/2 55/7/2
f 53/5/2 55/7/2 56/6/2
s 8
f 57/13/14 58/16/12 49/15/12
f 57/13/14 49/15/12 52/14/12
s 16
f 59/17/5 60/20/5 61/19/5
f 59/17/5 61/19/5 62/18/5
s 31
f 57/23/6 52/26/6 51/25/6
f 57/23/6 51/25/6 63/24/6
s 2
f 49/1/1 61/19/1 60/20/1
f 49/1/1 60/20/1 50/4/1
s 4
f 64/27/2 65/30/2 66/29/2
f 64/27/2 66/29/2 67/28/2
s 8
f 58/33/12 62/18/15 61/19/12
f 58/33/12 61/19/12 49/34/12
f 55/7/16 58/16/12 57/13/14
f 55/7/16 57/13/14 56/6/11
f 68/35/15 62/18/15 58/33/12
f 68/35/15 58/33/12 55/36/16
f 69/37/5 59/17/5 62/18/15
f 69/37/5 62/18/15 68/35/15
f 53/5/17 63/11/9 70/12/4
f 53/5/17 70/12/4 54/8/9
f 56/6/11 57/23/14 63/24/9
f 56/6/11 63/24/9 53/5/17
f 67/28/11 55/40/16 54/39/9
f 67/28/11 54/39/9 64/27/6
f 66/29/18 68/35/15 55/36/16
f 66/29/18 55/36/16 67/41/11
f 65/30/5 69/37/5 68/35/15
f 65/30/5 68/35/15 66/29/18
# 102 triangles in group

# 102 triangles total

