# 3ds Max Wavefront OBJ Exporter v0.97b - (c)2007 guruware
# File Created: 20.08.2014 23:18:22

mtllib TV.mtl

#
# object Box001
#

v  50.9909 0.0000 -38.8245
v  50.9909 0.0000 38.8245
v  -50.9909 0.0000 38.8245
v  -50.9909 0.0000 -38.8245
v  50.9909 65.6977 -38.8245
v  -50.9909 65.6977 -38.8245
v  -50.9909 65.6977 38.8245
v  50.9909 65.6977 38.8245
v  19.3831 64.0273 -1.2865
v  19.3831 64.0273 30.3086
v  -17.1485 64.0273 30.3086
v  -17.1485 64.0273 -1.2865
v  19.3831 73.2211 -1.2865
v  -17.1485 73.2211 -1.2865
v  -17.1485 73.2211 30.3086
v  19.3831 73.2211 30.3086
v  35.9034 119.0020 24.7717
v  35.9034 119.0020 27.1636
v  -11.4611 66.2864 27.1636
v  -11.4611 66.2864 24.7717
v  33.7931 120.8980 24.7717
v  -13.5713 68.1824 24.7717
v  -13.5713 68.1824 27.1636
v  33.7931 120.8980 27.1636
# 24 vertices

vn 0.0000 -1.0000 -0.0000
vn 0.0000 1.0000 -0.0000
vn 0.0000 0.0000 1.0000
vn 1.0000 0.0000 -0.0000
vn 0.0000 0.0000 -1.0000
vn -1.0000 0.0000 -0.0000
vn 0.7439 -0.6683 -0.0000
vn -0.7439 0.6683 -0.0000
vn 0.6683 0.7439 -0.0000
vn -0.6683 -0.7439 -0.0000
# 10 vertex normals

vt 0.4874 0.7736 0.0000
vt 0.2777 0.7736 0.0000
vt 0.2777 0.4982 0.0000
vt 0.4874 0.4983 0.0000
vt 0.6648 0.7736 0.0000
vt 0.6648 0.4983 0.0000
vt 0.8744 0.4983 0.0000
vt 0.8744 0.7736 0.0000
vt 0.6648 0.0133 0.0000
vt 0.6648 0.2886 0.0000
vt 0.4874 0.2886 0.0000
vt 0.4874 0.0133 0.0000
vt 0.6648 0.9832 0.0000
vt 0.4874 0.9832 0.0000
vt 0.1604 0.4842 0.0000
vt 0.0253 0.4842 0.0000
vt 0.0253 0.3281 0.0000
vt 0.1604 0.3281 0.0000
vt 0.1997 0.4842 0.0000
vt 0.1997 0.3281 0.0000
vt 0.3347 0.3281 0.0000
vt 0.3347 0.4842 0.0000
vt 0.1997 0.0369 0.0000
vt 0.1997 0.1931 0.0000
vt 0.1604 0.1931 0.0000
vt 0.1604 0.0369 0.0000
vt 0.1997 0.6192 0.0000
vt 0.1604 0.6192 0.0000
vt 0.9533 0.0547 0.0000
vt 0.9707 0.0547 0.0000
vt 0.9707 0.5687 0.0000
vt 0.9533 0.5687 0.0000
vt 0.9327 0.0547 0.0000
vt 0.9328 0.5687 0.0000
vt 0.9154 0.5687 0.0000
vt 0.9154 0.0547 0.0000
vt 0.8948 0.5687 0.0000
vt 0.8948 0.0547 0.0000
vt 0.9533 0.0341 0.0000
vt 0.9707 0.0341 0.0000
vt 0.9154 0.5861 0.0000
vt 0.8948 0.5861 0.0000
# 42 texture coords

g Box001
usemtl Material__19
s 2
f 1/1/1 2/2/1 3/3/1 4/4/1 
s 4
f 5/5/2 6/6/2 7/7/2 8/8/2 
s 8
f 8/9/3 7/10/3 3/11/3 2/12/3 
s 16
f 5/5/4 8/13/4 2/14/4 1/1/4 
s 32
f 6/6/5 5/5/5 1/1/5 4/4/5 
s 64
f 7/10/6 6/6/6 4/4/6 3/11/6 
s 2
f 9/15/1 10/16/1 11/17/1 12/18/1 
s 4
f 13/19/2 14/20/2 15/21/2 16/22/2 
s 8
f 16/23/3 15/24/3 11/25/3 10/26/3 
s 16
f 13/19/4 16/27/4 10/28/4 9/15/4 
s 32
f 14/20/5 13/19/5 9/15/5 12/18/5 
s 64
f 15/24/6 14/20/6 12/18/6 11/25/6 
s 2
f 17/29/7 18/30/7 19/31/7 20/32/7 
s 4
f 21/33/8 22/34/8 23/35/8 24/36/8 
s 8
f 24/36/3 23/35/3 19/37/3 18/38/3 
s 16
f 21/39/9 24/40/9 18/30/9 17/29/9 
s 32
f 22/34/5 21/33/5 17/29/5 20/32/5 
s 64
f 23/35/10 22/41/10 20/42/10 19/37/10 
# 18 polygons

