# Wavefront OBJ exported by MilkShape 3D

mtllib writing desk.mtl

v 12.320500 8.290569 -4.613300
v 12.320500 6.695567 -4.613300
v 5.361900 6.695567 -4.613300
v 5.361900 8.290569 -4.613300
v 12.320500 8.290569 4.613300
v 5.361900 8.290569 4.613300
v 12.320500 6.695567 4.613300
v 5.361900 6.695567 4.613300
v 12.320500 -0.056333 -4.613300
v 12.320500 -0.056333 4.613300
v 5.361900 -0.056333 4.613300
v 5.361900 -0.056333 -4.613300
v -12.981500 8.290569 -4.613300
v -12.981500 6.695567 -4.613300
v -12.981500 6.695567 4.613300
v -12.981500 8.290569 4.613300
v -6.022900 8.290569 4.613300
v -6.022900 8.290569 -4.613300
v -6.022900 6.695567 4.613300
v -12.981500 -0.056333 -4.613300
v -6.022900 -0.056333 -4.613300
v -6.022900 -0.056333 4.613300
v -12.981500 -0.056333 4.613300
v -6.022900 6.695567 -4.613300
# 24 vertices

vt 0.322300 0.177900
vt 0.367900 0.177900
vt 0.367900 0.377300
vt 0.322300 0.377300
vt 0.058100 0.177900
vt 0.058100 0.377300
vt 0.012300 0.177900
vt 0.012300 0.377300
vt 0.828400 0.703200
vt 0.828400 0.482100
vt 0.661600 0.482100
vt 0.661600 0.703200
vt 0.322300 0.902400
vt 0.322300 0.948000
vt 0.058100 0.948000
vt 0.058100 0.902400
vt 0.058100 0.132200
vt 0.322300 0.132200
vt 0.058100 0.703300
vt 0.322300 0.703300
vt 0.012300 0.902400
vt 0.012300 0.703300
vt 0.367900 0.703300
vt 0.367900 0.902400
vt 0.632200 0.377300
vt 0.632200 0.703300
vt 0.990300 0.482100
vt 0.990300 0.314800
vt 0.828400 0.314800
vt 0.990300 0.093200
vt 0.828400 0.093200
vt 0.828400 0.870100
vt 0.990300 0.870100
vt 0.990300 0.703200
# 34 texture coordinates

vn 0.000000 0.000000 -1.000000
vn 0.000000 1.000000 0.000000
vn 0.000000 0.000000 1.000000
vn -0.192450 -0.192450 0.962250
vn 0.000000 -1.000000 0.000000
vn 0.000000 -0.447214 0.894427
vn -0.666667 -0.666667 0.333333
vn -0.707107 -0.707107 0.000000
vn -1.000000 0.000000 0.000000
vn 1.000000 0.000000 0.000000
vn 0.000000 -0.554700 0.832050
vn 0.000000 -0.707107 0.707107
# 12 normals

g pCube009
s 1
f 1/1/1 2/2/1 3/3/1
f 1/1/1 3/3/1 4/4/1
s 2
f 5/5/2 1/1/2 4/4/2
f 5/5/2 4/4/2 6/6/2
s 3
f 7/7/3 5/5/3 6/6/3
f 7/7/3 6/6/3 8/8/4
f 9/9/5 10/10/6 11/11/7
f 9/9/5 11/11/7 12/12/8
s 4
f 13/13/9 14/14/9 15/15/9
f 13/13/9 15/15/9 16/16/9
s 5
f 5/5/10 7/17/10 2/18/10
f 5/5/10 2/18/10 1/1/10
s 2
f 16/16/2 17/19/2 18/20/2
f 16/16/2 18/20/2 13/13/2
s 3
f 15/21/3 19/22/11 17/19/3
f 15/21/3 17/19/3 16/16/3
f 20/9/5 21/12/5 22/11/12
f 20/9/5 22/11/12 23/10/12
s 1
f 13/13/1 18/20/1 24/23/1
f 13/13/1 24/23/1 14/24/1
f 24/23/1 18/20/1 4/4/1
f 24/23/1 4/4/1 3/3/1
s 2
f 6/6/2 4/4/2 18/20/2
f 6/6/2 18/20/2 17/19/2
s 3
f 8/8/4 6/6/3 17/19/3
f 8/8/4 17/19/3 19/22/11
f 3/3/8 8/25/4 19/26/11
f 3/3/8 19/26/11 24/23/5
f 10/10/6 7/27/3 8/28/4
f 10/10/6 8/28/4 11/29/7
f 11/29/7 8/28/4 3/30/8
f 11/29/7 3/30/8 12/31/8
s 1
f 12/32/1 3/33/1 2/34/1
f 12/32/1 2/34/1 9/9/1
s 5
f 9/9/10 2/34/10 7/27/10
f 9/9/10 7/27/10 10/10/10
f 21/31/10 24/30/10 19/28/10
f 21/31/10 19/28/10 22/29/10
s 3
f 22/29/12 19/28/11 15/27/3
f 22/29/12 15/27/3 23/10/12
s 4
f 23/10/9 15/27/9 14/34/9
f 23/10/9 14/34/9 20/9/9
s 1
f 20/9/1 14/34/1 24/33/1
f 20/9/1 24/33/1 21/32/1
# 44 triangles in group

# 44 triangles total

